<svg width="375" height="382" viewBox="0 0 375 382" fill="none" xmlns="http://www.w3.org/2000/svg">
<circle cx="434" cy="183" r="199" fill="#FFDBB0"/>
<circle cx="166" cy="-62" r="350" fill="#FEA236" fill-opacity="0.85"/>
<path d="M235 -93C235 16.9047 145.905 106 36 106C-73.9047 106 -163 16.9047 -163 -93C-163 -202.905 -73.9047 -292 36 -292C145.905 -292 235 -202.905 235 -93Z" fill="#FDD09B"/>
<path d="M40.14 175V142.8H59.23V146.572H44.51V156.416H56.792V160.004H44.51V175H40.14ZM72.0802 175.552C69.8108 175.552 67.7715 175.031 65.9622 173.988C64.1528 172.915 62.7268 171.443 61.6842 169.572C60.6722 167.671 60.1662 165.493 60.1662 163.04C60.1662 160.464 60.6875 158.241 61.7302 156.37C62.7728 154.499 64.1988 153.058 66.0082 152.046C67.8175 151.034 69.8415 150.528 72.0802 150.528C74.3188 150.528 76.3275 151.034 78.1062 152.046C79.9155 153.058 81.3415 154.499 82.3842 156.37C83.4575 158.21 83.9942 160.403 83.9942 162.948C83.9942 165.493 83.4728 167.717 82.4302 169.618C81.3875 171.489 79.9615 172.945 78.1522 173.988C76.3735 175.031 74.3495 175.552 72.0802 175.552ZM72.0802 171.872C74.5028 171.872 76.3888 171.059 77.7382 169.434C79.0875 167.778 79.7622 165.647 79.7622 163.04C79.7622 161.445 79.4248 159.989 78.7502 158.67C78.0755 157.321 77.1555 156.247 75.9902 155.45C74.8555 154.622 73.5522 154.208 72.0802 154.208C69.6575 154.208 67.7715 155.005 66.4222 156.6C65.0728 158.195 64.3982 160.311 64.3982 162.948C64.3982 164.543 64.7355 166.03 65.4102 167.41C66.0848 168.759 66.9895 169.848 68.1242 170.676C69.2895 171.473 70.6082 171.872 72.0802 171.872ZM89.4984 175V151.08H93.5004V156.278C93.899 155.266 94.4357 154.331 95.1104 153.472C95.785 152.583 96.6284 151.877 97.6404 151.356C98.6524 150.804 99.833 150.528 101.182 150.528C101.642 150.528 102.102 150.559 102.562 150.62C103.022 150.651 103.406 150.712 103.712 150.804L102.47 155.082C101.888 154.837 101.198 154.714 100.4 154.714C99.2657 154.714 98.177 155.036 97.1344 155.68C96.1224 156.324 95.279 157.321 94.6044 158.67C93.9604 160.019 93.6384 161.737 93.6384 163.822V175H89.4984ZM115.265 185.672C113.854 185.672 112.474 185.503 111.125 185.166C109.806 184.829 108.625 184.323 107.583 183.648L109.101 180.06C109.837 180.643 110.695 181.118 111.677 181.486C112.658 181.885 113.854 182.084 115.265 182.084C117.442 182.084 119.144 181.501 120.371 180.336C121.628 179.201 122.257 177.377 122.257 174.862V171.918C121.643 172.654 120.754 173.359 119.589 174.034C118.454 174.678 117.089 175 115.495 175C113.685 175 111.968 174.54 110.343 173.62C108.717 172.669 107.399 171.289 106.387 169.48C105.375 167.671 104.869 165.493 104.869 162.948C104.869 160.556 105.359 158.425 106.341 156.554C107.353 154.683 108.702 153.211 110.389 152.138C112.075 151.065 113.931 150.528 115.955 150.528C117.304 150.528 118.531 150.758 119.635 151.218C120.739 151.678 121.689 152.245 122.487 152.92V151.08H126.259V174.448C126.259 177.085 125.799 179.232 124.879 180.888C123.959 182.544 122.671 183.755 121.015 184.522C119.389 185.289 117.473 185.672 115.265 185.672ZM116.415 171.32C117.641 171.32 118.745 171.044 119.727 170.492C120.708 169.94 121.505 169.296 122.119 168.56V156.048C121.444 155.557 120.631 155.113 119.681 154.714C118.73 154.315 117.626 154.116 116.369 154.116C115.111 154.116 113.931 154.453 112.827 155.128C111.723 155.803 110.818 156.784 110.113 158.072C109.438 159.329 109.101 160.878 109.101 162.718C109.101 164.466 109.438 165.984 110.113 167.272C110.818 168.56 111.723 169.557 112.827 170.262C113.931 170.967 115.127 171.32 116.415 171.32ZM143.461 175.552C141.192 175.552 139.152 175.031 137.343 173.988C135.534 172.915 134.108 171.443 133.065 169.572C132.053 167.671 131.547 165.493 131.547 163.04C131.547 160.464 132.068 158.241 133.111 156.37C134.154 154.499 135.58 153.058 137.389 152.046C139.198 151.034 141.222 150.528 143.461 150.528C145.7 150.528 147.708 151.034 149.487 152.046C151.296 153.058 152.722 154.499 153.765 156.37C154.838 158.21 155.375 160.403 155.375 162.948C155.375 165.493 154.854 167.717 153.811 169.618C152.768 171.489 151.342 172.945 149.533 173.988C147.754 175.031 145.73 175.552 143.461 175.552ZM143.461 171.872C145.884 171.872 147.77 171.059 149.119 169.434C150.468 167.778 151.143 165.647 151.143 163.04C151.143 161.445 150.806 159.989 150.131 158.67C149.456 157.321 148.536 156.247 147.371 155.45C146.236 154.622 144.933 154.208 143.461 154.208C141.038 154.208 139.152 155.005 137.803 156.6C136.454 158.195 135.779 160.311 135.779 162.948C135.779 164.543 136.116 166.03 136.791 167.41C137.466 168.759 138.37 169.848 139.505 170.676C140.67 171.473 141.989 171.872 143.461 171.872ZM169.251 175.552C166.951 175.552 165.127 174.801 163.777 173.298C162.459 171.765 161.799 169.587 161.799 166.766V155.542H157.659V151.954H161.891L162.765 144.41H165.939V151.954H172.563V155.542H165.939V167.088C165.939 168.867 166.307 170.109 167.043 170.814C167.81 171.519 168.715 171.872 169.757 171.872C170.524 171.872 171.245 171.749 171.919 171.504C172.625 171.259 173.269 170.967 173.851 170.63L175.001 173.942C174.388 174.31 173.56 174.663 172.517 175C171.475 175.368 170.386 175.552 169.251 175.552ZM40.14 229V196.892C41.3973 196.739 42.7773 196.631 44.28 196.57C45.8133 196.478 47.3927 196.432 49.018 196.432C51.686 196.432 53.9553 196.861 55.826 197.72C57.6967 198.548 59.1227 199.698 60.104 201.17C61.0853 202.642 61.576 204.329 61.576 206.23C61.576 208.53 61.0087 210.477 59.874 212.072C58.7393 213.667 57.16 214.893 55.136 215.752C53.112 216.58 50.766 216.994 48.098 216.994C46.81 216.994 45.614 216.948 44.51 216.856V229H40.14ZM48.65 213.36C51.3793 213.36 53.4953 212.747 54.998 211.52C56.5007 210.293 57.252 208.653 57.252 206.598C57.252 204.605 56.5313 203.025 55.09 201.86C53.6487 200.695 51.594 200.112 48.926 200.112C48.098 200.112 47.316 200.127 46.58 200.158C45.844 200.189 45.154 200.235 44.51 200.296V213.13C45.0007 213.191 45.5987 213.253 46.304 213.314C47.0093 213.345 47.7913 213.36 48.65 213.36ZM74.8887 229.552C72.8954 229.552 71.086 229.046 69.4607 228.034C67.8354 227.022 66.532 225.596 65.5507 223.756C64.6 221.885 64.1247 219.693 64.1247 217.178C64.1247 214.786 64.6 212.639 65.5507 210.738C66.532 208.837 67.866 207.334 69.5527 206.23C71.27 205.095 73.2327 204.528 75.4407 204.528C76.8207 204.528 78.0627 204.773 79.1667 205.264C80.3014 205.724 81.2827 206.307 82.1107 207.012V205.08H85.8827V223.204C85.8827 224.369 86.1587 225.136 86.7107 225.504C87.2934 225.841 87.922 226.01 88.5967 226.01L87.7227 229.23C84.7787 229.23 83 228.034 82.3867 225.642C81.6814 226.623 80.7154 227.528 79.4887 228.356C78.2927 229.153 76.7594 229.552 74.8887 229.552ZM75.8087 225.872C76.974 225.872 78.078 225.596 79.1207 225.044C80.1634 224.461 81.0374 223.741 81.7427 222.882V210.048C80.9147 209.465 79.9947 209.005 78.9827 208.668C78.0014 208.3 76.9587 208.116 75.8547 208.116C74.3827 208.116 73.0794 208.499 71.9447 209.266C70.8407 210.002 69.9667 211.045 69.3227 212.394C68.6787 213.713 68.3567 215.261 68.3567 217.04C68.3567 218.757 68.6787 220.291 69.3227 221.64C69.9667 222.959 70.856 224.001 71.9907 224.768C73.1254 225.504 74.398 225.872 75.8087 225.872ZM100.565 229.552C98.756 229.552 97.1153 229.322 95.6433 228.862C94.202 228.402 93.006 227.804 92.0553 227.068L93.8033 223.618C94.6006 224.293 95.5973 224.86 96.7933 225.32C98.02 225.749 99.3233 225.964 100.703 225.964C102.421 225.964 103.709 225.688 104.567 225.136C105.457 224.553 105.901 223.817 105.901 222.928C105.901 222.284 105.733 221.717 105.395 221.226C105.089 220.735 104.506 220.26 103.647 219.8C102.789 219.309 101.547 218.788 99.9213 218.236C97.6826 217.469 95.996 216.565 94.8613 215.522C93.7573 214.449 93.2053 212.977 93.2053 211.106C93.2053 209.266 94.0026 207.717 95.5973 206.46C97.2226 205.172 99.4613 204.528 102.313 204.528C103.847 204.528 105.211 204.697 106.407 205.034C107.603 205.341 108.677 205.739 109.627 206.23L108.477 209.634C107.649 209.143 106.699 208.745 105.625 208.438C104.583 208.131 103.417 207.978 102.129 207.978C100.535 207.978 99.3233 208.3 98.4953 208.944C97.6673 209.588 97.2533 210.293 97.2533 211.06C97.2533 211.796 97.5753 212.425 98.2193 212.946C98.8633 213.467 100.121 214.035 101.991 214.648C105.027 215.66 107.143 216.779 108.339 218.006C109.535 219.233 110.133 220.766 110.133 222.606C110.133 224.753 109.259 226.455 107.511 227.712C105.794 228.939 103.479 229.552 100.565 229.552ZM122.083 229.552C120.274 229.552 118.633 229.322 117.161 228.862C115.72 228.402 114.524 227.804 113.573 227.068L115.321 223.618C116.118 224.293 117.115 224.86 118.311 225.32C119.538 225.749 120.841 225.964 122.221 225.964C123.938 225.964 125.226 225.688 126.085 225.136C126.974 224.553 127.419 223.817 127.419 222.928C127.419 222.284 127.25 221.717 126.913 221.226C126.606 220.735 126.024 220.26 125.165 219.8C124.306 219.309 123.064 218.788 121.439 218.236C119.2 217.469 117.514 216.565 116.379 215.522C115.275 214.449 114.723 212.977 114.723 211.106C114.723 209.266 115.52 207.717 117.115 206.46C118.74 205.172 120.979 204.528 123.831 204.528C125.364 204.528 126.729 204.697 127.925 205.034C129.121 205.341 130.194 205.739 131.145 206.23L129.995 209.634C129.167 209.143 128.216 208.745 127.143 208.438C126.1 208.131 124.935 207.978 123.647 207.978C122.052 207.978 120.841 208.3 120.013 208.944C119.185 209.588 118.771 210.293 118.771 211.06C118.771 211.796 119.093 212.425 119.737 212.946C120.381 213.467 121.638 214.035 123.509 214.648C126.545 215.66 128.661 216.779 129.857 218.006C131.053 219.233 131.651 220.766 131.651 222.606C131.651 224.753 130.777 226.455 129.029 227.712C127.312 228.939 124.996 229.552 122.083 229.552ZM142.174 229L134.63 206.184L138.448 204.85L144.612 224.308L150.224 206.782H154.686L160.16 224.308L166.278 204.85L169.958 206.184L162.368 229H157.814L152.294 211.198L146.728 229H142.174ZM184.43 229.552C182.16 229.552 180.121 229.031 178.312 227.988C176.502 226.915 175.076 225.443 174.034 223.572C173.022 221.671 172.516 219.493 172.516 217.04C172.516 214.464 173.037 212.241 174.08 210.37C175.122 208.499 176.548 207.058 178.358 206.046C180.167 205.034 182.191 204.528 184.43 204.528C186.668 204.528 188.677 205.034 190.456 206.046C192.265 207.058 193.691 208.499 194.734 210.37C195.807 212.21 196.344 214.403 196.344 216.948C196.344 219.493 195.822 221.717 194.78 223.618C193.737 225.489 192.311 226.945 190.502 227.988C188.723 229.031 186.699 229.552 184.43 229.552ZM184.43 225.872C186.852 225.872 188.738 225.059 190.088 223.434C191.437 221.778 192.112 219.647 192.112 217.04C192.112 215.445 191.774 213.989 191.1 212.67C190.425 211.321 189.505 210.247 188.34 209.45C187.205 208.622 185.902 208.208 184.43 208.208C182.007 208.208 180.121 209.005 178.772 210.6C177.422 212.195 176.748 214.311 176.748 216.948C176.748 218.543 177.085 220.03 177.76 221.41C178.434 222.759 179.339 223.848 180.474 224.676C181.639 225.473 182.958 225.872 184.43 225.872ZM201.848 229V205.08H205.85V210.278C206.249 209.266 206.785 208.331 207.46 207.472C208.135 206.583 208.978 205.877 209.99 205.356C211.002 204.804 212.183 204.528 213.532 204.528C213.992 204.528 214.452 204.559 214.912 204.62C215.372 204.651 215.755 204.712 216.062 204.804L214.82 209.082C214.237 208.837 213.547 208.714 212.75 208.714C211.615 208.714 210.527 209.036 209.484 209.68C208.472 210.324 207.629 211.321 206.954 212.67C206.31 214.019 205.988 215.737 205.988 217.822V229H201.848ZM227.89 229.552C225.928 229.552 224.134 229.046 222.508 228.034C220.883 227.022 219.595 225.596 218.644 223.756C217.694 221.885 217.218 219.693 217.218 217.178C217.218 214.755 217.694 212.593 218.644 210.692C219.626 208.791 220.914 207.288 222.508 206.184C224.134 205.08 225.912 204.528 227.844 204.528C229.439 204.528 230.804 204.85 231.938 205.494C233.104 206.138 234.008 206.797 234.652 207.472V194.96H238.792V223.204C238.792 224.369 239.068 225.136 239.62 225.504C240.203 225.841 240.832 226.01 241.506 226.01L240.632 229.23C237.719 229.23 235.94 228.065 235.296 225.734C234.622 226.685 233.671 227.559 232.444 228.356C231.248 229.153 229.73 229.552 227.89 229.552ZM228.81 225.872C229.945 225.872 231.018 225.611 232.03 225.09C233.073 224.538 233.947 223.833 234.652 222.974V211.106C234.07 210.37 233.257 209.695 232.214 209.082C231.172 208.438 230.022 208.116 228.764 208.116C227.292 208.116 226.004 208.515 224.9 209.312C223.796 210.109 222.938 211.183 222.324 212.532C221.742 213.851 221.45 215.353 221.45 217.04C221.45 218.727 221.772 220.245 222.416 221.594C223.06 222.913 223.934 223.955 225.038 224.722C226.173 225.489 227.43 225.872 228.81 225.872Z" fill="white"/>
<g clip-path="url(#clip0_407_47)">
<path d="M21 47.6048C24.7894 47.6048 25.3226 45.5516 25.3226 43.7093C25.3226 42.2368 25.1094 40.7644 24.8956 39.2878C24.6819 37.8112 24.4681 36.3929 24.4681 34.9187C24.4681 30.0761 27.6705 28.0229 32.2063 28.0229H44.4718L44.2151 30.9184H32.3675C29.2188 30.9184 28.1512 32.6029 28.1512 35.4453C28.1512 36.6556 28.3112 37.919 28.525 39.1824C28.7381 40.4987 28.8982 41.7615 28.8982 43.1833C28.9519 46.5517 27.4573 48.2362 25.0563 48.8681V48.9736C27.4573 49.5525 28.9519 51.3419 28.8982 54.7108C28.8982 56.132 28.7381 57.4478 28.525 58.7112C28.3112 60.0275 28.1512 61.2379 28.1512 62.5013C28.1512 65.4462 29.3789 67.0812 32.3675 67.0812H33.3277V69.9748H32.2069C27.778 69.9748 24.4681 68.0813 24.4681 62.7645C24.4681 61.3433 24.6819 59.8697 24.895 58.4479C25.1082 57.0261 25.322 55.6055 25.322 54.1843C25.322 52.5528 24.7888 50.2893 20.9994 50.2893L21 47.6048Z" fill="black"/>
<path d="M32.4661 69.9748L47.0563 18.9985H50.6121L35.97 69.9748H32.4661Z" fill="black"/>
<path d="M69.0006 50.3948C65.2113 50.3948 64.678 52.4474 64.678 54.2897C64.678 55.7621 64.8912 57.2346 65.1044 58.7112C65.3176 60.1877 65.5313 61.6066 65.5313 63.0802C65.5313 67.9234 62.3295 69.976 57.7932 69.976H45.5282L45.785 67.0812H57.6331C60.7818 67.0812 61.8495 65.3967 61.8495 62.5543C61.8495 61.3433 61.6894 60.0805 61.4757 58.8166C61.2625 57.5008 61.1024 56.2375 61.1024 54.8162C61.0487 51.4473 62.5433 49.7628 64.9444 49.1314V49.026C62.5433 48.447 61.0487 46.6571 61.1024 43.2881C61.1024 41.8669 61.2625 40.5511 61.4757 39.2878C61.6894 37.972 61.8495 36.7611 61.8495 35.4977C61.8495 32.5528 60.6218 30.9184 57.6331 30.9184H56.673V28.0229H57.7932C62.2227 28.0229 65.5313 29.9183 65.5313 35.235C65.5313 36.6562 65.3182 38.1298 65.1044 39.5511C64.8906 40.9723 64.678 42.3935 64.678 43.8147C64.678 45.4468 65.2113 47.7102 69.0006 47.7102V50.3948Z" fill="black"/>
<path d="M57.5346 28.0229L42.9444 78.9998H39.3885L54.0307 28.0229H57.5346Z" fill="black"/>
<path d="M54.3656 19L48.3299 40.0855H46.8604L52.917 19H54.3656Z" fill="black"/>
<path d="M43.1415 57.9126L37.1063 78.9981H35.6344L41.6916 57.9126H43.1415Z" fill="black"/>
</g>
<path d="M75.2559 32.6211V41H74.1719V32.6211H75.2559ZM75.3145 30.3945V31.5078H74.1133V30.3945H75.3145ZM76.5801 32.6211H77.7812L80.1953 36.998L82.6445 32.6211H83.9043L80.7051 38.0703V41H79.6211V38.0703L76.5801 32.6211ZM90.7012 32.6211V33.5H88.0645V41H86.9805V33.5H84.3438V32.6211H90.7012ZM97.4746 32.6211V33.5H93.0801V36.3125H97.2695V37.1914H93.0801V40.1211H97.5625V41H91.9961V32.6211H97.4746ZM73.1465 45.6211H74.3477L76.7617 49.998L79.2109 45.6211H80.4707L77.2715 51.0703V54H76.1875V51.0703L73.1465 45.6211ZM81.2031 52.1426C81.2031 50.8809 82.0352 50.25 83.6992 50.25C84.2344 50.25 84.7695 50.2891 85.3047 50.3672V49.7871C85.3047 49.0801 84.752 48.7266 83.6465 48.7266C83.0137 48.7266 82.3652 48.8242 81.7012 49.0195V48.1406C82.3652 47.9453 83.0137 47.8477 83.6465 47.8477C85.4746 47.8477 86.3887 48.4844 86.3887 49.7578V54H85.7793L85.4043 53.3906C84.791 53.7969 84.123 54 83.4004 54C81.9355 54 81.2031 53.3809 81.2031 52.1426ZM83.6992 51.1289C82.7578 51.1289 82.2871 51.4609 82.2871 52.125C82.2871 52.7891 82.6582 53.1211 83.4004 53.1211C84.1504 53.1211 84.7852 52.9219 85.3047 52.5234V51.2461C84.7695 51.168 84.2344 51.1289 83.6992 51.1289ZM87.9766 47.8477H92.7812V48.7266L89.1074 53.1797H92.6641V54H87.8594V53.1797L91.5801 48.7266H87.9766V47.8477ZM95.4473 47.8477V54H94.3633V47.8477H95.4473ZM98.4707 45.6211V54H97.3867V45.6211H98.4707ZM101.494 47.8477V54H100.41V47.8477H101.494ZM103.375 54V47.8477H104.107L104.289 48.6211C104.879 48.1055 105.521 47.8477 106.217 47.8477C107.107 47.8477 107.715 48.1289 108.039 48.6914C108.707 48.1289 109.385 47.8477 110.072 47.8477C111.486 47.8477 112.193 48.627 112.193 50.1855V54H111.109V50.127C111.109 49.209 110.723 48.75 109.949 48.75C109.371 48.75 108.83 49.0156 108.326 49.5469V54H107.242V50.1445C107.242 49.2148 106.859 48.75 106.094 48.75C105.484 48.75 104.939 49.0156 104.459 49.5469V54H103.375ZM79.6504 58.6211V59.5H77.0137V67H75.9297V59.5H73.293V58.6211H79.6504ZM81.6191 63.9004C81.6191 65.3809 82.2344 66.1211 83.4648 66.1211C84.6953 66.1211 85.3105 65.3809 85.3105 63.9004C85.3105 62.4512 84.6953 61.7266 83.4648 61.7266C82.2344 61.7266 81.6191 62.4512 81.6191 63.9004ZM80.5352 63.9238C80.5352 61.873 81.5117 60.8477 83.4648 60.8477C85.418 60.8477 86.3945 61.873 86.3945 63.9238C86.3945 65.9707 85.418 66.9941 83.4648 66.9941C81.5195 66.9941 80.543 65.9707 80.5352 63.9238ZM88.9434 65.7461C89.3691 65.957 89.8438 66.0625 90.3672 66.0625C91.6445 66.0625 92.2832 65.2949 92.2832 63.7598C92.2832 62.4199 91.6484 61.75 90.3789 61.75C89.832 61.75 89.3535 61.7969 88.9434 61.8906V65.7461ZM87.8594 61.0996C88.6758 60.9316 89.5195 60.8477 90.3906 60.8477C92.3633 60.8477 93.3496 61.8223 93.3496 63.7715C93.3496 65.9238 92.3574 67 90.373 67C89.8809 67 89.4043 66.9023 88.9434 66.707V69.2266H87.8594V61.0996ZM95.9629 58.6211V67H94.8789V58.6211H95.9629ZM103.088 60.8477V67H102.344L102.156 66.2148C101.41 66.7383 100.66 67 99.9062 67C98.4922 67 97.7852 66.2363 97.7852 64.709V60.8477H98.8691V64.7266C98.8691 65.6406 99.3223 66.0977 100.229 66.0977C100.85 66.0977 101.441 65.8379 102.004 65.3184V60.8477H103.088ZM105.994 58.6211V67H104.91V58.6211H105.994ZM113.119 60.8477V67H112.375L112.188 66.2148C111.441 66.7383 110.691 67 109.938 67C108.523 67 107.816 66.2363 107.816 64.709V60.8477H108.9V64.7266C108.9 65.6406 109.354 66.0977 110.26 66.0977C110.881 66.0977 111.473 65.8379 112.035 65.3184V60.8477H113.119ZM118.996 61.8906C118.625 61.7969 118.166 61.75 117.619 61.75C116.311 61.75 115.656 62.459 115.656 63.877C115.656 65.334 116.275 66.0625 117.514 66.0625C118.076 66.0625 118.57 65.957 118.996 65.7461V61.8906ZM120.08 67C120.08 68.4844 119.137 69.2266 117.25 69.2266C116.492 69.2266 115.82 69.1289 115.234 68.9336V68.0547C115.832 68.25 116.508 68.3477 117.262 68.3477C118.418 68.3477 118.996 67.8984 118.996 67V66.707C118.535 66.9023 118.039 67 117.508 67C115.562 67 114.59 65.9629 114.59 63.8887C114.59 61.8613 115.615 60.8477 117.666 60.8477C118.498 60.8477 119.303 60.9316 120.08 61.0996V67ZM116.02 58.6211H116.811C116.811 59.207 117.064 59.5 117.572 59.5C118.08 59.5 118.334 59.207 118.334 58.6211H119.125C119.125 59.6367 118.607 60.1445 117.572 60.1445C116.537 60.1445 116.02 59.6367 116.02 58.6211ZM127.146 60.8477V67H126.402L126.215 66.2148C125.469 66.7383 124.719 67 123.965 67C122.551 67 121.844 66.2363 121.844 64.709V60.8477H122.928V64.7266C122.928 65.6406 123.381 66.0977 124.287 66.0977C124.908 66.0977 125.5 65.8379 126.062 65.3184V60.8477H127.146Z" fill="black"/>
<defs>
<clipPath id="clip0_407_47">
<rect width="48" height="60" fill="white" transform="translate(21 19)"/>
</clipPath>
</defs>
</svg>
