<svg width="375" height="382" viewBox="0 0 375 382" fill="none" xmlns="http://www.w3.org/2000/svg">
<circle cx="434" cy="183" r="199" fill="#FFDBB0"/>
<circle cx="166" cy="-62" r="350" fill="#FEA236" fill-opacity="0.85"/>
<path d="M235 -93C235 16.9047 145.905 106 36 106C-73.9047 106 -163 16.9047 -163 -93C-163 -202.905 -73.9047 -292 36 -292C145.905 -292 235 -202.905 235 -93Z" fill="#FDD09B"/>
<path d="M40.14 175V142.8H46.258L55.182 163.178L63.968 142.8H70.224V175H65.854V148.366L57.252 167.732H52.928L44.28 148.366V175H40.14ZM87.6113 175.552C84.1766 175.552 81.4473 174.463 79.4233 172.286C77.4299 170.078 76.4333 166.996 76.4333 163.04C76.4333 160.648 76.8779 158.517 77.7673 156.646C78.6873 154.745 79.9599 153.257 81.5853 152.184C83.2106 151.08 85.0966 150.528 87.2433 150.528C89.5433 150.528 91.4446 151.034 92.9473 152.046C94.4806 153.027 95.6306 154.361 96.3973 156.048C97.1639 157.735 97.5473 159.59 97.5473 161.614C97.5473 162.687 97.5013 163.73 97.4093 164.742H80.6653C80.9413 166.981 81.7233 168.729 83.0113 169.986C84.2993 171.243 86.0013 171.872 88.1173 171.872C89.4973 171.872 90.7393 171.734 91.8433 171.458C92.9473 171.151 94.0053 170.768 95.0173 170.308L95.9833 173.85C94.8793 174.341 93.6373 174.739 92.2573 175.046C90.8773 175.383 89.3286 175.552 87.6113 175.552ZM80.6193 161.384H93.7293C93.7293 159.053 93.1466 157.259 91.9813 156.002C90.8159 154.745 89.2059 154.116 87.1513 154.116C85.3726 154.116 83.9006 154.745 82.7353 156.002C81.5699 157.229 80.8646 159.023 80.6193 161.384ZM103.065 175V151.08H107.067V155.082C107.925 153.794 109.014 152.721 110.333 151.862C111.651 150.973 113.154 150.528 114.841 150.528C116.742 150.528 118.291 150.988 119.487 151.908C120.713 152.828 121.572 154.055 122.063 155.588C123.013 154.177 124.133 152.981 125.421 152C126.739 151.019 128.365 150.528 130.297 150.528C132.903 150.528 134.835 151.356 136.093 153.012C137.381 154.637 138.025 156.769 138.025 159.406V175H133.885V159.728C133.885 158.072 133.501 156.738 132.735 155.726C131.968 154.683 130.91 154.162 129.561 154.162C128.181 154.162 126.893 154.683 125.697 155.726C124.531 156.738 123.504 157.934 122.615 159.314V175H118.475V159.728C118.475 158.072 118.091 156.738 117.325 155.726C116.558 154.683 115.5 154.162 114.151 154.162C112.801 154.162 111.529 154.668 110.333 155.68C109.137 156.661 108.094 157.827 107.205 159.176V175H103.065ZM155.921 175.552C154.541 175.552 153.237 175.307 152.011 174.816C150.815 174.295 149.818 173.697 149.021 173.022V175H145.157V140.96H149.297V153.564C149.91 152.859 150.799 152.184 151.965 151.54C153.161 150.865 154.571 150.528 156.197 150.528C158.037 150.528 159.754 151.019 161.349 152C162.974 152.951 164.277 154.346 165.259 156.186C166.24 157.995 166.731 160.203 166.731 162.81C166.731 164.711 166.424 166.444 165.811 168.008C165.197 169.572 164.369 170.921 163.327 172.056C162.315 173.16 161.165 174.019 159.877 174.632C158.589 175.245 157.27 175.552 155.921 175.552ZM154.817 171.872C156.319 171.872 157.638 171.504 158.773 170.768C159.938 170.032 160.843 168.989 161.487 167.64C162.161 166.291 162.499 164.727 162.499 162.948C162.499 161.108 162.161 159.529 161.487 158.21C160.843 156.891 159.969 155.879 158.865 155.174C157.791 154.469 156.595 154.116 155.277 154.116C153.958 154.116 152.762 154.453 151.689 155.128C150.646 155.772 149.849 156.477 149.297 157.244V170.032C150.002 170.584 150.83 171.029 151.781 171.366C152.731 171.703 153.743 171.872 154.817 171.872ZM182.037 175.552C178.602 175.552 175.873 174.463 173.849 172.286C171.856 170.078 170.859 166.996 170.859 163.04C170.859 160.648 171.304 158.517 172.193 156.646C173.113 154.745 174.386 153.257 176.011 152.184C177.636 151.08 179.522 150.528 181.669 150.528C183.969 150.528 185.87 151.034 187.373 152.046C188.906 153.027 190.056 154.361 190.823 156.048C191.59 157.735 191.973 159.59 191.973 161.614C191.973 162.687 191.927 163.73 191.835 164.742H175.091C175.367 166.981 176.149 168.729 177.437 169.986C178.725 171.243 180.427 171.872 182.543 171.872C183.923 171.872 185.165 171.734 186.269 171.458C187.373 171.151 188.431 170.768 189.443 170.308L190.409 173.85C189.305 174.341 188.063 174.739 186.683 175.046C185.303 175.383 183.754 175.552 182.037 175.552ZM175.045 161.384H188.155C188.155 159.053 187.572 157.259 186.407 156.002C185.242 154.745 183.632 154.116 181.577 154.116C179.798 154.116 178.326 154.745 177.161 156.002C175.996 157.229 175.29 159.023 175.045 161.384ZM197.491 175V151.08H201.493V156.278C201.891 155.266 202.428 154.331 203.103 153.472C203.777 152.583 204.621 151.877 205.633 151.356C206.645 150.804 207.825 150.528 209.175 150.528C209.635 150.528 210.095 150.559 210.555 150.62C211.015 150.651 211.398 150.712 211.705 150.804L210.463 155.082C209.88 154.837 209.19 154.714 208.393 154.714C207.258 154.714 206.169 155.036 205.127 155.68C204.115 156.324 203.271 157.321 202.597 158.67C201.953 160.019 201.631 161.737 201.631 163.822V175H197.491ZM221.136 175.552C219.326 175.552 217.686 175.322 216.214 174.862C214.772 174.402 213.576 173.804 212.626 173.068L214.374 169.618C215.171 170.293 216.168 170.86 217.364 171.32C218.59 171.749 219.894 171.964 221.274 171.964C222.991 171.964 224.279 171.688 225.138 171.136C226.027 170.553 226.472 169.817 226.472 168.928C226.472 168.284 226.303 167.717 225.966 167.226C225.659 166.735 225.076 166.26 224.218 165.8C223.359 165.309 222.117 164.788 220.492 164.236C218.253 163.469 216.566 162.565 215.432 161.522C214.328 160.449 213.776 158.977 213.776 157.106C213.776 155.266 214.573 153.717 216.168 152.46C217.793 151.172 220.032 150.528 222.884 150.528C224.417 150.528 225.782 150.697 226.978 151.034C228.174 151.341 229.247 151.739 230.198 152.23L229.048 155.634C228.22 155.143 227.269 154.745 226.196 154.438C225.153 154.131 223.988 153.978 222.7 153.978C221.105 153.978 219.894 154.3 219.066 154.944C218.238 155.588 217.824 156.293 217.824 157.06C217.824 157.796 218.146 158.425 218.79 158.946C219.434 159.467 220.691 160.035 222.562 160.648C225.598 161.66 227.714 162.779 228.91 164.006C230.106 165.233 230.704 166.766 230.704 168.606C230.704 170.753 229.83 172.455 228.082 173.712C226.364 174.939 224.049 175.552 221.136 175.552ZM236.213 175V140.96H240.353V154.898C241.212 153.641 242.301 152.598 243.619 151.77C244.938 150.942 246.487 150.528 248.265 150.528C250.964 150.528 252.973 151.341 254.291 152.966C255.641 154.591 256.315 156.738 256.315 159.406V175H252.175V159.866C252.175 158.149 251.777 156.769 250.979 155.726C250.182 154.683 249.063 154.162 247.621 154.162C246.211 154.162 244.861 154.668 243.573 155.68C242.316 156.661 241.243 157.827 240.353 159.176V175H236.213ZM263.436 175V151.08H267.576V175H263.436ZM265.506 146.986C264.709 146.986 264.019 146.695 263.436 146.112C262.884 145.529 262.608 144.855 262.608 144.088C262.608 143.199 262.869 142.493 263.39 141.972C263.911 141.451 264.617 141.19 265.506 141.19C266.303 141.19 266.978 141.481 267.53 142.064C268.113 142.616 268.404 143.291 268.404 144.088C268.404 144.947 268.143 145.652 267.622 146.204C267.101 146.725 266.395 146.986 265.506 146.986ZM275.81 185.12V157.198C275.81 156.155 275.549 155.419 275.028 154.99C274.537 154.53 273.893 154.3 273.096 154.3L273.97 151.08C276.791 151.08 278.555 152.199 279.26 154.438C279.567 153.978 280.057 153.441 280.732 152.828C281.437 152.215 282.296 151.678 283.308 151.218C284.351 150.758 285.531 150.528 286.85 150.528C288.69 150.528 290.407 151.019 292.002 152C293.627 152.951 294.931 154.346 295.912 156.186C296.893 157.995 297.384 160.203 297.384 162.81C297.384 165.355 296.893 167.594 295.912 169.526C294.931 171.427 293.643 172.915 292.048 173.988C290.484 175.031 288.782 175.552 286.942 175.552C285.531 175.552 284.213 175.276 282.986 174.724C281.759 174.141 280.747 173.482 279.95 172.746V185.12H275.81ZM286.114 171.872C288.199 171.872 289.886 171.059 291.174 169.434C292.493 167.778 293.152 165.616 293.152 162.948C293.152 161.108 292.815 159.529 292.14 158.21C291.496 156.891 290.622 155.879 289.518 155.174C288.445 154.469 287.249 154.116 285.93 154.116C284.611 154.116 283.415 154.453 282.342 155.128C281.299 155.772 280.502 156.477 279.95 157.244V169.02C280.747 169.848 281.667 170.538 282.71 171.09C283.753 171.611 284.887 171.872 286.114 171.872ZM52.514 229.552C49.7233 229.552 47.2547 228.893 45.108 227.574C42.9613 226.225 41.29 224.323 40.094 221.87C38.898 219.386 38.3 216.442 38.3 213.038C38.3 209.757 38.898 206.859 40.094 204.344C41.3207 201.799 43.038 199.821 45.246 198.41C47.4847 196.969 50.0913 196.248 53.066 196.248C54.5993 196.248 55.9947 196.401 57.252 196.708C58.5093 196.984 59.69 197.383 60.794 197.904L59.46 201.584C58.5093 201.124 57.528 200.756 56.516 200.48C55.5347 200.204 54.3693 200.066 53.02 200.066C51.0573 200.066 49.294 200.572 47.73 201.584C46.1967 202.596 44.9853 204.053 44.096 205.954C43.2067 207.855 42.762 210.155 42.762 212.854C42.762 215.43 43.1913 217.684 44.05 219.616C44.9393 221.548 46.1507 223.051 47.684 224.124C49.248 225.197 51.0267 225.734 53.02 225.734C54.5227 225.734 55.826 225.55 56.93 225.182C58.034 224.814 59.1073 224.339 60.15 223.756L61.484 227.39C60.3493 228.003 59.046 228.525 57.574 228.954C56.1327 229.353 54.446 229.552 52.514 229.552ZM74.7539 229.552C72.7606 229.552 70.9513 229.046 69.3259 228.034C67.7006 227.022 66.3973 225.596 65.4159 223.756C64.4653 221.885 63.9899 219.693 63.9899 217.178C63.9899 214.786 64.4653 212.639 65.4159 210.738C66.3973 208.837 67.7313 207.334 69.4179 206.23C71.1353 205.095 73.0979 204.528 75.3059 204.528C76.6859 204.528 77.9279 204.773 79.0319 205.264C80.1666 205.724 81.1479 206.307 81.9759 207.012V205.08H85.7479V223.204C85.7479 224.369 86.0239 225.136 86.5759 225.504C87.1586 225.841 87.7873 226.01 88.4619 226.01L87.5879 229.23C84.6439 229.23 82.8653 228.034 82.2519 225.642C81.5466 226.623 80.5806 227.528 79.3539 228.356C78.1579 229.153 76.6246 229.552 74.7539 229.552ZM75.6739 225.872C76.8393 225.872 77.9433 225.596 78.9859 225.044C80.0286 224.461 80.9026 223.741 81.6079 222.882V210.048C80.7799 209.465 79.8599 209.005 78.8479 208.668C77.8666 208.3 76.8239 208.116 75.7199 208.116C74.2479 208.116 72.9446 208.499 71.8099 209.266C70.7059 210.002 69.8319 211.045 69.1879 212.394C68.5439 213.713 68.2219 215.261 68.2219 217.04C68.2219 218.757 68.5439 220.291 69.1879 221.64C69.8319 222.959 70.7213 224.001 71.8559 224.768C72.9906 225.504 74.2633 225.872 75.6739 225.872ZM93.9905 229V205.08H97.9925V210.278C98.3912 209.266 98.9279 208.331 99.6025 207.472C100.277 206.583 101.121 205.877 102.133 205.356C103.145 204.804 104.325 204.528 105.675 204.528C106.135 204.528 106.595 204.559 107.055 204.62C107.515 204.651 107.898 204.712 108.205 204.804L106.963 209.082C106.38 208.837 105.69 208.714 104.893 208.714C103.758 208.714 102.669 209.036 101.627 209.68C100.615 210.324 99.7712 211.321 99.0965 212.67C98.4525 214.019 98.1305 215.737 98.1305 217.822V229H93.9905ZM120.033 229.552C118.07 229.552 116.276 229.046 114.651 228.034C113.026 227.022 111.738 225.596 110.787 223.756C109.836 221.885 109.361 219.693 109.361 217.178C109.361 214.755 109.836 212.593 110.787 210.692C111.768 208.791 113.056 207.288 114.651 206.184C116.276 205.08 118.055 204.528 119.987 204.528C121.582 204.528 122.946 204.85 124.081 205.494C125.246 206.138 126.151 206.797 126.795 207.472V194.96H130.935V223.204C130.935 224.369 131.211 225.136 131.763 225.504C132.346 225.841 132.974 226.01 133.649 226.01L132.775 229.23C129.862 229.23 128.083 228.065 127.439 225.734C126.764 226.685 125.814 227.559 124.587 228.356C123.391 229.153 121.873 229.552 120.033 229.552ZM120.953 225.872C122.088 225.872 123.161 225.611 124.173 225.09C125.216 224.538 126.09 223.833 126.795 222.974V211.106C126.212 210.37 125.4 209.695 124.357 209.082C123.314 208.438 122.164 208.116 120.907 208.116C119.435 208.116 118.147 208.515 117.043 209.312C115.939 210.109 115.08 211.183 114.467 212.532C113.884 213.851 113.593 215.353 113.593 217.04C113.593 218.727 113.915 220.245 114.559 221.594C115.203 222.913 116.077 223.955 117.181 224.722C118.316 225.489 119.573 225.872 120.953 225.872Z" fill="white"/>
<g clip-path="url(#clip0_369_19)">
<path d="M20.9999 47.6048C24.7892 47.6048 25.3225 45.5516 25.3225 43.7093C25.3225 42.2368 25.1093 40.7644 24.8955 39.2878C24.6817 37.8112 24.468 36.3929 24.468 34.9187C24.468 30.0761 27.6704 28.0229 32.2061 28.0229H44.4717L44.2149 30.9184H32.3674C29.2187 30.9184 28.151 32.6029 28.151 35.4453C28.151 36.6556 28.3111 37.919 28.5249 39.1824C28.738 40.4987 28.8981 41.7615 28.8981 43.1833C28.9518 46.5517 27.4572 48.2362 25.0561 48.8681V48.9736C27.4572 49.5525 28.9518 51.3419 28.8981 54.7108C28.8981 56.132 28.738 57.4478 28.5249 58.7112C28.3111 60.0275 28.151 61.2379 28.151 62.5013C28.151 65.4462 29.3787 67.0812 32.3674 67.0812H33.3275V69.9748H32.2067C27.7778 69.9748 24.468 68.0813 24.468 62.7645C24.468 61.3433 24.6817 59.8697 24.8949 58.4479C25.1081 57.0261 25.3219 55.6055 25.3219 54.1843C25.3219 52.5528 24.7886 50.2893 20.9993 50.2893L20.9999 47.6048Z" fill="black"/>
<path d="M32.4658 69.9748L47.056 18.9985H50.6119L35.9698 69.9748H32.4658Z" fill="black"/>
<path d="M69.0005 50.3948C65.2112 50.3948 64.6779 52.4474 64.6779 54.2897C64.6779 55.7621 64.8911 57.2346 65.1043 58.7112C65.3174 60.1877 65.5312 61.6066 65.5312 63.0802C65.5312 67.9234 62.3294 69.976 57.7931 69.976H45.5281L45.7848 67.0812H57.633C60.7817 67.0812 61.8493 65.3967 61.8493 62.5543C61.8493 61.3433 61.6893 60.0805 61.4755 58.8166C61.2624 57.5008 61.1023 56.2375 61.1023 54.8162C61.0486 51.4473 62.5432 49.7628 64.9442 49.1314V49.026C62.5432 48.447 61.0486 46.6571 61.1023 43.2881C61.1023 41.8669 61.2624 40.5511 61.4755 39.2878C61.6893 37.972 61.8493 36.7611 61.8493 35.4977C61.8493 32.5528 60.6216 30.9184 57.633 30.9184H56.6728V28.0229H57.7931C62.2225 28.0229 65.5312 29.9183 65.5312 35.235C65.5312 36.6562 65.318 38.1298 65.1043 39.5511C64.8905 40.9723 64.6779 42.3935 64.6779 43.8147C64.6779 45.4468 65.2112 47.7102 69.0005 47.7102V50.3948Z" fill="black"/>
<path d="M57.5345 28.0229L42.9443 78.9998H39.3884L54.0306 28.0229H57.5345Z" fill="black"/>
<path d="M54.3656 19L48.3299 40.0855H46.8604L52.917 19H54.3656Z" fill="black"/>
<path d="M43.1414 57.9126L37.1062 78.9981H35.6343L41.6915 57.9126H43.1414Z" fill="black"/>
</g>
<path d="M75.2559 32.6211V41H74.1719V32.6211H75.2559ZM75.3145 30.3945V31.5078H74.1133V30.3945H75.3145ZM76.5801 32.6211H77.7812L80.1953 36.998L82.6445 32.6211H83.9043L80.7051 38.0703V41H79.6211V38.0703L76.5801 32.6211ZM90.7012 32.6211V33.5H88.0645V41H86.9805V33.5H84.3438V32.6211H90.7012ZM97.4746 32.6211V33.5H93.0801V36.3125H97.2695V37.1914H93.0801V40.1211H97.5625V41H91.9961V32.6211H97.4746ZM73.1465 45.6211H74.3477L76.7617 49.998L79.2109 45.6211H80.4707L77.2715 51.0703V54H76.1875V51.0703L73.1465 45.6211ZM81.2031 52.1426C81.2031 50.8809 82.0352 50.25 83.6992 50.25C84.2344 50.25 84.7695 50.2891 85.3047 50.3672V49.7871C85.3047 49.0801 84.752 48.7266 83.6465 48.7266C83.0137 48.7266 82.3652 48.8242 81.7012 49.0195V48.1406C82.3652 47.9453 83.0137 47.8477 83.6465 47.8477C85.4746 47.8477 86.3887 48.4844 86.3887 49.7578V54H85.7793L85.4043 53.3906C84.791 53.7969 84.123 54 83.4004 54C81.9355 54 81.2031 53.3809 81.2031 52.1426ZM83.6992 51.1289C82.7578 51.1289 82.2871 51.4609 82.2871 52.125C82.2871 52.7891 82.6582 53.1211 83.4004 53.1211C84.1504 53.1211 84.7852 52.9219 85.3047 52.5234V51.2461C84.7695 51.168 84.2344 51.1289 83.6992 51.1289ZM87.9766 47.8477H92.7812V48.7266L89.1074 53.1797H92.6641V54H87.8594V53.1797L91.5801 48.7266H87.9766V47.8477ZM95.4473 47.8477V54H94.3633V47.8477H95.4473ZM98.4707 45.6211V54H97.3867V45.6211H98.4707ZM101.494 47.8477V54H100.41V47.8477H101.494ZM103.375 54V47.8477H104.107L104.289 48.6211C104.879 48.1055 105.521 47.8477 106.217 47.8477C107.107 47.8477 107.715 48.1289 108.039 48.6914C108.707 48.1289 109.385 47.8477 110.072 47.8477C111.486 47.8477 112.193 48.627 112.193 50.1855V54H111.109V50.127C111.109 49.209 110.723 48.75 109.949 48.75C109.371 48.75 108.83 49.0156 108.326 49.5469V54H107.242V50.1445C107.242 49.2148 106.859 48.75 106.094 48.75C105.484 48.75 104.939 49.0156 104.459 49.5469V54H103.375ZM79.6504 58.6211V59.5H77.0137V67H75.9297V59.5H73.293V58.6211H79.6504ZM81.6191 63.9004C81.6191 65.3809 82.2344 66.1211 83.4648 66.1211C84.6953 66.1211 85.3105 65.3809 85.3105 63.9004C85.3105 62.4512 84.6953 61.7266 83.4648 61.7266C82.2344 61.7266 81.6191 62.4512 81.6191 63.9004ZM80.5352 63.9238C80.5352 61.873 81.5117 60.8477 83.4648 60.8477C85.418 60.8477 86.3945 61.873 86.3945 63.9238C86.3945 65.9707 85.418 66.9941 83.4648 66.9941C81.5195 66.9941 80.543 65.9707 80.5352 63.9238ZM88.9434 65.7461C89.3691 65.957 89.8438 66.0625 90.3672 66.0625C91.6445 66.0625 92.2832 65.2949 92.2832 63.7598C92.2832 62.4199 91.6484 61.75 90.3789 61.75C89.832 61.75 89.3535 61.7969 88.9434 61.8906V65.7461ZM87.8594 61.0996C88.6758 60.9316 89.5195 60.8477 90.3906 60.8477C92.3633 60.8477 93.3496 61.8223 93.3496 63.7715C93.3496 65.9238 92.3574 67 90.373 67C89.8809 67 89.4043 66.9023 88.9434 66.707V69.2266H87.8594V61.0996ZM95.9629 58.6211V67H94.8789V58.6211H95.9629ZM103.088 60.8477V67H102.344L102.156 66.2148C101.41 66.7383 100.66 67 99.9062 67C98.4922 67 97.7852 66.2363 97.7852 64.709V60.8477H98.8691V64.7266C98.8691 65.6406 99.3223 66.0977 100.229 66.0977C100.85 66.0977 101.441 65.8379 102.004 65.3184V60.8477H103.088ZM105.994 58.6211V67H104.91V58.6211H105.994ZM113.119 60.8477V67H112.375L112.188 66.2148C111.441 66.7383 110.691 67 109.938 67C108.523 67 107.816 66.2363 107.816 64.709V60.8477H108.9V64.7266C108.9 65.6406 109.354 66.0977 110.26 66.0977C110.881 66.0977 111.473 65.8379 112.035 65.3184V60.8477H113.119ZM118.996 61.8906C118.625 61.7969 118.166 61.75 117.619 61.75C116.311 61.75 115.656 62.459 115.656 63.877C115.656 65.334 116.275 66.0625 117.514 66.0625C118.076 66.0625 118.57 65.957 118.996 65.7461V61.8906ZM120.08 67C120.08 68.4844 119.137 69.2266 117.25 69.2266C116.492 69.2266 115.82 69.1289 115.234 68.9336V68.0547C115.832 68.25 116.508 68.3477 117.262 68.3477C118.418 68.3477 118.996 67.8984 118.996 67V66.707C118.535 66.9023 118.039 67 117.508 67C115.562 67 114.59 65.9629 114.59 63.8887C114.59 61.8613 115.615 60.8477 117.666 60.8477C118.498 60.8477 119.303 60.9316 120.08 61.0996V67ZM116.02 58.6211H116.811C116.811 59.207 117.064 59.5 117.572 59.5C118.08 59.5 118.334 59.207 118.334 58.6211H119.125C119.125 59.6367 118.607 60.1445 117.572 60.1445C116.537 60.1445 116.02 59.6367 116.02 58.6211ZM127.146 60.8477V67H126.402L126.215 66.2148C125.469 66.7383 124.719 67 123.965 67C122.551 67 121.844 66.2363 121.844 64.709V60.8477H122.928V64.7266C122.928 65.6406 123.381 66.0977 124.287 66.0977C124.908 66.0977 125.5 65.8379 126.062 65.3184V60.8477H127.146Z" fill="black"/>
<defs>
<clipPath id="clip0_369_19">
<rect width="48" height="60" fill="white" transform="translate(21 19)"/>
</clipPath>
</defs>
</svg>
