<svg width="375" height="382" viewBox="0 0 375 382" fill="none" xmlns="http://www.w3.org/2000/svg">
<circle cx="434" cy="183" r="199" fill="#FFDBB0"/>
<circle cx="166" cy="-62" r="350" fill="#FEA236" fill-opacity="0.85"/>
<path d="M235 -93C235 16.9047 145.905 106 36 106C-73.9047 106 -163 16.9047 -163 -93C-163 -202.905 -73.9047 -292 36 -292C145.905 -292 235 -202.905 235 -93Z" fill="#FDD09B"/>
<path d="M58.908 175.552L54.906 166.812C53.894 164.635 52.6213 163.086 51.088 162.166C49.5547 161.246 47.592 160.786 45.2 160.786H44.51V175H40.14V142.892C41.7653 142.739 43.314 142.631 44.786 142.57C46.2887 142.478 47.8833 142.432 49.57 142.432C53.4953 142.432 56.4393 143.229 58.402 144.824C60.3953 146.419 61.392 148.473 61.392 150.988C61.392 153.227 60.7173 155.036 59.368 156.416C58.0493 157.765 56.1327 158.777 53.618 159.452C54.446 159.82 55.182 160.265 55.826 160.786C56.47 161.277 57.0833 161.951 57.666 162.81C58.2793 163.638 58.8927 164.727 59.506 166.076L63.002 173.62L58.908 175.552ZM44.51 157.106H49.57C51.778 157.106 53.572 156.615 54.952 155.634C56.332 154.653 57.022 153.242 57.022 151.402C57.022 149.869 56.378 148.611 55.09 147.63C53.802 146.618 51.962 146.112 49.57 146.112C48.5273 146.112 47.592 146.127 46.764 146.158C45.936 146.189 45.1847 146.235 44.51 146.296V157.106ZM77.6386 175.552C74.204 175.552 71.4746 174.463 69.4506 172.286C67.4573 170.078 66.4606 166.996 66.4606 163.04C66.4606 160.648 66.9053 158.517 67.7946 156.646C68.7146 154.745 69.9873 153.257 71.6126 152.184C73.238 151.08 75.124 150.528 77.2706 150.528C79.5706 150.528 81.472 151.034 82.9746 152.046C84.508 153.027 85.658 154.361 86.4246 156.048C87.1913 157.735 87.5746 159.59 87.5746 161.614C87.5746 162.687 87.5286 163.73 87.4366 164.742H70.6926C70.9686 166.981 71.7506 168.729 73.0386 169.986C74.3266 171.243 76.0286 171.872 78.1446 171.872C79.5246 171.872 80.7666 171.734 81.8706 171.458C82.9746 171.151 84.0326 170.768 85.0446 170.308L86.0106 173.85C84.9066 174.341 83.6646 174.739 82.2846 175.046C80.9046 175.383 79.356 175.552 77.6386 175.552ZM70.6466 161.384H83.7566C83.7566 159.053 83.174 157.259 82.0086 156.002C80.8433 154.745 79.2333 154.116 77.1786 154.116C75.4 154.116 73.928 154.745 72.7626 156.002C71.5973 157.229 70.892 159.023 70.6466 161.384ZM99.5321 175.552C97.7228 175.552 96.0821 175.322 94.6101 174.862C93.1688 174.402 91.9728 173.804 91.0221 173.068L92.7701 169.618C93.5674 170.293 94.5641 170.86 95.7601 171.32C96.9868 171.749 98.2901 171.964 99.6701 171.964C101.387 171.964 102.675 171.688 103.534 171.136C104.423 170.553 104.868 169.817 104.868 168.928C104.868 168.284 104.699 167.717 104.362 167.226C104.055 166.735 103.473 166.26 102.614 165.8C101.755 165.309 100.513 164.788 98.8881 164.236C96.6494 163.469 94.9628 162.565 93.8281 161.522C92.7241 160.449 92.1721 158.977 92.1721 157.106C92.1721 155.266 92.9694 153.717 94.5641 152.46C96.1894 151.172 98.4281 150.528 101.28 150.528C102.813 150.528 104.178 150.697 105.374 151.034C106.57 151.341 107.643 151.739 108.594 152.23L107.444 155.634C106.616 155.143 105.665 154.745 104.592 154.438C103.549 154.131 102.384 153.978 101.096 153.978C99.5014 153.978 98.2901 154.3 97.4621 154.944C96.6341 155.588 96.2201 156.293 96.2201 157.06C96.2201 157.796 96.5421 158.425 97.1861 158.946C97.8301 159.467 99.0874 160.035 100.958 160.648C103.994 161.66 106.11 162.779 107.306 164.006C108.502 165.233 109.1 166.766 109.1 168.606C109.1 170.753 108.226 172.455 106.478 173.712C104.761 174.939 102.445 175.552 99.5321 175.552ZM124.178 175.552C120.743 175.552 118.014 174.463 115.99 172.286C113.996 170.078 113 166.996 113 163.04C113 160.648 113.444 158.517 114.334 156.646C115.254 154.745 116.526 153.257 118.152 152.184C119.777 151.08 121.663 150.528 123.81 150.528C126.11 150.528 128.011 151.034 129.514 152.046C131.047 153.027 132.197 154.361 132.964 156.048C133.73 157.735 134.114 159.59 134.114 161.614C134.114 162.687 134.068 163.73 133.976 164.742H117.232C117.508 166.981 118.29 168.729 119.578 169.986C120.866 171.243 122.568 171.872 124.684 171.872C126.064 171.872 127.306 171.734 128.41 171.458C129.514 171.151 130.572 170.768 131.584 170.308L132.55 173.85C131.446 174.341 130.204 174.739 128.824 175.046C127.444 175.383 125.895 175.552 124.178 175.552ZM117.186 161.384H130.296C130.296 159.053 129.713 157.259 128.548 156.002C127.382 154.745 125.772 154.116 123.718 154.116C121.939 154.116 120.467 154.745 119.302 156.002C118.136 157.229 117.431 159.023 117.186 161.384ZM148.003 175.552C145.703 175.552 143.879 174.801 142.529 173.298C141.211 171.765 140.551 169.587 140.551 166.766V155.542H136.411V151.954H140.643L141.517 144.41H144.691V151.954H151.315V155.542H144.691V167.088C144.691 168.867 145.059 170.109 145.795 170.814C146.562 171.519 147.467 171.872 148.509 171.872C149.276 171.872 149.997 171.749 150.671 171.504C151.377 171.259 152.021 170.967 152.603 170.63L153.753 173.942C153.14 174.31 152.312 174.663 151.269 175C150.227 175.368 149.138 175.552 148.003 175.552ZM40.14 229V196.892C41.3973 196.739 42.7773 196.631 44.28 196.57C45.8133 196.478 47.3927 196.432 49.018 196.432C51.686 196.432 53.9553 196.861 55.826 197.72C57.6967 198.548 59.1227 199.698 60.104 201.17C61.0853 202.642 61.576 204.329 61.576 206.23C61.576 208.53 61.0087 210.477 59.874 212.072C58.7393 213.667 57.16 214.893 55.136 215.752C53.112 216.58 50.766 216.994 48.098 216.994C46.81 216.994 45.614 216.948 44.51 216.856V229H40.14ZM48.65 213.36C51.3793 213.36 53.4953 212.747 54.998 211.52C56.5007 210.293 57.252 208.653 57.252 206.598C57.252 204.605 56.5313 203.025 55.09 201.86C53.6487 200.695 51.594 200.112 48.926 200.112C48.098 200.112 47.316 200.127 46.58 200.158C45.844 200.189 45.154 200.235 44.51 200.296V213.13C45.0007 213.191 45.5987 213.253 46.304 213.314C47.0093 213.345 47.7913 213.36 48.65 213.36ZM74.8887 229.552C72.8954 229.552 71.086 229.046 69.4607 228.034C67.8354 227.022 66.532 225.596 65.5507 223.756C64.6 221.885 64.1247 219.693 64.1247 217.178C64.1247 214.786 64.6 212.639 65.5507 210.738C66.532 208.837 67.866 207.334 69.5527 206.23C71.27 205.095 73.2327 204.528 75.4407 204.528C76.8207 204.528 78.0627 204.773 79.1667 205.264C80.3014 205.724 81.2827 206.307 82.1107 207.012V205.08H85.8827V223.204C85.8827 224.369 86.1587 225.136 86.7107 225.504C87.2934 225.841 87.922 226.01 88.5967 226.01L87.7227 229.23C84.7787 229.23 83 228.034 82.3867 225.642C81.6814 226.623 80.7154 227.528 79.4887 228.356C78.2927 229.153 76.7594 229.552 74.8887 229.552ZM75.8087 225.872C76.974 225.872 78.078 225.596 79.1207 225.044C80.1634 224.461 81.0374 223.741 81.7427 222.882V210.048C80.9147 209.465 79.9947 209.005 78.9827 208.668C78.0014 208.3 76.9587 208.116 75.8547 208.116C74.3827 208.116 73.0794 208.499 71.9447 209.266C70.8407 210.002 69.9667 211.045 69.3227 212.394C68.6787 213.713 68.3567 215.261 68.3567 217.04C68.3567 218.757 68.6787 220.291 69.3227 221.64C69.9667 222.959 70.856 224.001 71.9907 224.768C73.1254 225.504 74.398 225.872 75.8087 225.872ZM100.565 229.552C98.756 229.552 97.1153 229.322 95.6433 228.862C94.202 228.402 93.006 227.804 92.0553 227.068L93.8033 223.618C94.6006 224.293 95.5973 224.86 96.7933 225.32C98.02 225.749 99.3233 225.964 100.703 225.964C102.421 225.964 103.709 225.688 104.567 225.136C105.457 224.553 105.901 223.817 105.901 222.928C105.901 222.284 105.733 221.717 105.395 221.226C105.089 220.735 104.506 220.26 103.647 219.8C102.789 219.309 101.547 218.788 99.9213 218.236C97.6826 217.469 95.996 216.565 94.8613 215.522C93.7573 214.449 93.2053 212.977 93.2053 211.106C93.2053 209.266 94.0026 207.717 95.5973 206.46C97.2226 205.172 99.4613 204.528 102.313 204.528C103.847 204.528 105.211 204.697 106.407 205.034C107.603 205.341 108.677 205.739 109.627 206.23L108.477 209.634C107.649 209.143 106.699 208.745 105.625 208.438C104.583 208.131 103.417 207.978 102.129 207.978C100.535 207.978 99.3233 208.3 98.4953 208.944C97.6673 209.588 97.2533 210.293 97.2533 211.06C97.2533 211.796 97.5753 212.425 98.2193 212.946C98.8633 213.467 100.121 214.035 101.991 214.648C105.027 215.66 107.143 216.779 108.339 218.006C109.535 219.233 110.133 220.766 110.133 222.606C110.133 224.753 109.259 226.455 107.511 227.712C105.794 228.939 103.479 229.552 100.565 229.552ZM122.083 229.552C120.274 229.552 118.633 229.322 117.161 228.862C115.72 228.402 114.524 227.804 113.573 227.068L115.321 223.618C116.118 224.293 117.115 224.86 118.311 225.32C119.538 225.749 120.841 225.964 122.221 225.964C123.938 225.964 125.226 225.688 126.085 225.136C126.974 224.553 127.419 223.817 127.419 222.928C127.419 222.284 127.25 221.717 126.913 221.226C126.606 220.735 126.024 220.26 125.165 219.8C124.306 219.309 123.064 218.788 121.439 218.236C119.2 217.469 117.514 216.565 116.379 215.522C115.275 214.449 114.723 212.977 114.723 211.106C114.723 209.266 115.52 207.717 117.115 206.46C118.74 205.172 120.979 204.528 123.831 204.528C125.364 204.528 126.729 204.697 127.925 205.034C129.121 205.341 130.194 205.739 131.145 206.23L129.995 209.634C129.167 209.143 128.216 208.745 127.143 208.438C126.1 208.131 124.935 207.978 123.647 207.978C122.052 207.978 120.841 208.3 120.013 208.944C119.185 209.588 118.771 210.293 118.771 211.06C118.771 211.796 119.093 212.425 119.737 212.946C120.381 213.467 121.638 214.035 123.509 214.648C126.545 215.66 128.661 216.779 129.857 218.006C131.053 219.233 131.651 220.766 131.651 222.606C131.651 224.753 130.777 226.455 129.029 227.712C127.312 228.939 124.996 229.552 122.083 229.552ZM142.174 229L134.63 206.184L138.448 204.85L144.612 224.308L150.224 206.782H154.686L160.16 224.308L166.278 204.85L169.958 206.184L162.368 229H157.814L152.294 211.198L146.728 229H142.174ZM184.43 229.552C182.16 229.552 180.121 229.031 178.312 227.988C176.502 226.915 175.076 225.443 174.034 223.572C173.022 221.671 172.516 219.493 172.516 217.04C172.516 214.464 173.037 212.241 174.08 210.37C175.122 208.499 176.548 207.058 178.358 206.046C180.167 205.034 182.191 204.528 184.43 204.528C186.668 204.528 188.677 205.034 190.456 206.046C192.265 207.058 193.691 208.499 194.734 210.37C195.807 212.21 196.344 214.403 196.344 216.948C196.344 219.493 195.822 221.717 194.78 223.618C193.737 225.489 192.311 226.945 190.502 227.988C188.723 229.031 186.699 229.552 184.43 229.552ZM184.43 225.872C186.852 225.872 188.738 225.059 190.088 223.434C191.437 221.778 192.112 219.647 192.112 217.04C192.112 215.445 191.774 213.989 191.1 212.67C190.425 211.321 189.505 210.247 188.34 209.45C187.205 208.622 185.902 208.208 184.43 208.208C182.007 208.208 180.121 209.005 178.772 210.6C177.422 212.195 176.748 214.311 176.748 216.948C176.748 218.543 177.085 220.03 177.76 221.41C178.434 222.759 179.339 223.848 180.474 224.676C181.639 225.473 182.958 225.872 184.43 225.872ZM201.848 229V205.08H205.85V210.278C206.249 209.266 206.785 208.331 207.46 207.472C208.135 206.583 208.978 205.877 209.99 205.356C211.002 204.804 212.183 204.528 213.532 204.528C213.992 204.528 214.452 204.559 214.912 204.62C215.372 204.651 215.755 204.712 216.062 204.804L214.82 209.082C214.237 208.837 213.547 208.714 212.75 208.714C211.615 208.714 210.527 209.036 209.484 209.68C208.472 210.324 207.629 211.321 206.954 212.67C206.31 214.019 205.988 215.737 205.988 217.822V229H201.848ZM227.89 229.552C225.928 229.552 224.134 229.046 222.508 228.034C220.883 227.022 219.595 225.596 218.644 223.756C217.694 221.885 217.218 219.693 217.218 217.178C217.218 214.755 217.694 212.593 218.644 210.692C219.626 208.791 220.914 207.288 222.508 206.184C224.134 205.08 225.912 204.528 227.844 204.528C229.439 204.528 230.804 204.85 231.938 205.494C233.104 206.138 234.008 206.797 234.652 207.472V194.96H238.792V223.204C238.792 224.369 239.068 225.136 239.62 225.504C240.203 225.841 240.832 226.01 241.506 226.01L240.632 229.23C237.719 229.23 235.94 228.065 235.296 225.734C234.622 226.685 233.671 227.559 232.444 228.356C231.248 229.153 229.73 229.552 227.89 229.552ZM228.81 225.872C229.945 225.872 231.018 225.611 232.03 225.09C233.073 224.538 233.947 223.833 234.652 222.974V211.106C234.07 210.37 233.257 209.695 232.214 209.082C231.172 208.438 230.022 208.116 228.764 208.116C227.292 208.116 226.004 208.515 224.9 209.312C223.796 210.109 222.938 211.183 222.324 212.532C221.742 213.851 221.45 215.353 221.45 217.04C221.45 218.727 221.772 220.245 222.416 221.594C223.06 222.913 223.934 223.955 225.038 224.722C226.173 225.489 227.43 225.872 228.81 225.872Z" fill="white"/>
<g clip-path="url(#clip0_412_78)">
<path d="M21 47.6048C24.7894 47.6048 25.3226 45.5516 25.3226 43.7093C25.3226 42.2368 25.1095 40.7644 24.8957 39.2878C24.6819 37.8112 24.4682 36.3929 24.4682 34.9187C24.4682 30.0761 27.6705 28.0229 32.2063 28.0229H44.4719L44.2151 30.9184H32.3675C29.2189 30.9184 28.1512 32.6029 28.1512 35.4453C28.1512 36.6556 28.3113 37.919 28.525 39.1824C28.7382 40.4987 28.8982 41.7615 28.8982 43.1833C28.952 46.5517 27.4574 48.2362 25.0563 48.8681V48.9736C27.4574 49.5525 28.952 51.3419 28.8982 54.7108C28.8982 56.132 28.7382 57.4478 28.525 58.7112C28.3113 60.0275 28.1512 61.2379 28.1512 62.5013C28.1512 65.4462 29.3789 67.0812 32.3675 67.0812H33.3277V69.9748H32.2069C27.778 69.9748 24.4682 68.0813 24.4682 62.7645C24.4682 61.3433 24.6819 59.8697 24.8951 58.4479C25.1083 57.0261 25.322 55.6055 25.322 54.1843C25.322 52.5528 24.7888 50.2893 20.9995 50.2893L21 47.6048Z" fill="black"/>
<path d="M32.4661 69.9748L47.0563 18.9985H50.6121L35.97 69.9748H32.4661Z" fill="black"/>
<path d="M69.0006 50.3948C65.2113 50.3948 64.678 52.4474 64.678 54.2897C64.678 55.7621 64.8912 57.2346 65.1044 58.7112C65.3176 60.1877 65.5313 61.6066 65.5313 63.0802C65.5313 67.9234 62.3295 69.976 57.7932 69.976H45.5282L45.785 67.0812H57.6331C60.7818 67.0812 61.8495 65.3967 61.8495 62.5543C61.8495 61.3433 61.6894 60.0805 61.4757 58.8166C61.2625 57.5008 61.1024 56.2375 61.1024 54.8162C61.0487 51.4473 62.5433 49.7628 64.9444 49.1314V49.026C62.5433 48.447 61.0487 46.6571 61.1024 43.2881C61.1024 41.8669 61.2625 40.5511 61.4757 39.2878C61.6894 37.972 61.8495 36.7611 61.8495 35.4977C61.8495 32.5528 60.6218 30.9184 57.6331 30.9184H56.673V28.0229H57.7932C62.2227 28.0229 65.5313 29.9183 65.5313 35.235C65.5313 36.6562 65.3182 38.1298 65.1044 39.5511C64.8906 40.9723 64.678 42.3935 64.678 43.8147C64.678 45.4468 65.2113 47.7102 69.0006 47.7102V50.3948Z" fill="black"/>
<path d="M57.5346 28.0229L42.9444 78.9998H39.3885L54.0307 28.0229H57.5346Z" fill="black"/>
<path d="M54.3656 19L48.3299 40.0855H46.8604L52.917 19H54.3656Z" fill="black"/>
<path d="M43.1415 57.9126L37.1063 78.9981H35.6344L41.6916 57.9126H43.1415Z" fill="black"/>
</g>
<path d="M75.2559 32.6211V41H74.1719V32.6211H75.2559ZM75.3145 30.3945V31.5078H74.1133V30.3945H75.3145ZM76.5801 32.6211H77.7812L80.1953 36.998L82.6445 32.6211H83.9043L80.7051 38.0703V41H79.6211V38.0703L76.5801 32.6211ZM90.7012 32.6211V33.5H88.0645V41H86.9805V33.5H84.3438V32.6211H90.7012ZM97.4746 32.6211V33.5H93.0801V36.3125H97.2695V37.1914H93.0801V40.1211H97.5625V41H91.9961V32.6211H97.4746ZM73.1465 45.6211H74.3477L76.7617 49.998L79.2109 45.6211H80.4707L77.2715 51.0703V54H76.1875V51.0703L73.1465 45.6211ZM81.2031 52.1426C81.2031 50.8809 82.0352 50.25 83.6992 50.25C84.2344 50.25 84.7695 50.2891 85.3047 50.3672V49.7871C85.3047 49.0801 84.752 48.7266 83.6465 48.7266C83.0137 48.7266 82.3652 48.8242 81.7012 49.0195V48.1406C82.3652 47.9453 83.0137 47.8477 83.6465 47.8477C85.4746 47.8477 86.3887 48.4844 86.3887 49.7578V54H85.7793L85.4043 53.3906C84.791 53.7969 84.123 54 83.4004 54C81.9355 54 81.2031 53.3809 81.2031 52.1426ZM83.6992 51.1289C82.7578 51.1289 82.2871 51.4609 82.2871 52.125C82.2871 52.7891 82.6582 53.1211 83.4004 53.1211C84.1504 53.1211 84.7852 52.9219 85.3047 52.5234V51.2461C84.7695 51.168 84.2344 51.1289 83.6992 51.1289ZM87.9766 47.8477H92.7812V48.7266L89.1074 53.1797H92.6641V54H87.8594V53.1797L91.5801 48.7266H87.9766V47.8477ZM95.4473 47.8477V54H94.3633V47.8477H95.4473ZM98.4707 45.6211V54H97.3867V45.6211H98.4707ZM101.494 47.8477V54H100.41V47.8477H101.494ZM103.375 54V47.8477H104.107L104.289 48.6211C104.879 48.1055 105.521 47.8477 106.217 47.8477C107.107 47.8477 107.715 48.1289 108.039 48.6914C108.707 48.1289 109.385 47.8477 110.072 47.8477C111.486 47.8477 112.193 48.627 112.193 50.1855V54H111.109V50.127C111.109 49.209 110.723 48.75 109.949 48.75C109.371 48.75 108.83 49.0156 108.326 49.5469V54H107.242V50.1445C107.242 49.2148 106.859 48.75 106.094 48.75C105.484 48.75 104.939 49.0156 104.459 49.5469V54H103.375ZM79.6504 58.6211V59.5H77.0137V67H75.9297V59.5H73.293V58.6211H79.6504ZM81.6191 63.9004C81.6191 65.3809 82.2344 66.1211 83.4648 66.1211C84.6953 66.1211 85.3105 65.3809 85.3105 63.9004C85.3105 62.4512 84.6953 61.7266 83.4648 61.7266C82.2344 61.7266 81.6191 62.4512 81.6191 63.9004ZM80.5352 63.9238C80.5352 61.873 81.5117 60.8477 83.4648 60.8477C85.418 60.8477 86.3945 61.873 86.3945 63.9238C86.3945 65.9707 85.418 66.9941 83.4648 66.9941C81.5195 66.9941 80.543 65.9707 80.5352 63.9238ZM88.9434 65.7461C89.3691 65.957 89.8438 66.0625 90.3672 66.0625C91.6445 66.0625 92.2832 65.2949 92.2832 63.7598C92.2832 62.4199 91.6484 61.75 90.3789 61.75C89.832 61.75 89.3535 61.7969 88.9434 61.8906V65.7461ZM87.8594 61.0996C88.6758 60.9316 89.5195 60.8477 90.3906 60.8477C92.3633 60.8477 93.3496 61.8223 93.3496 63.7715C93.3496 65.9238 92.3574 67 90.373 67C89.8809 67 89.4043 66.9023 88.9434 66.707V69.2266H87.8594V61.0996ZM95.9629 58.6211V67H94.8789V58.6211H95.9629ZM103.088 60.8477V67H102.344L102.156 66.2148C101.41 66.7383 100.66 67 99.9062 67C98.4922 67 97.7852 66.2363 97.7852 64.709V60.8477H98.8691V64.7266C98.8691 65.6406 99.3223 66.0977 100.229 66.0977C100.85 66.0977 101.441 65.8379 102.004 65.3184V60.8477H103.088ZM105.994 58.6211V67H104.91V58.6211H105.994ZM113.119 60.8477V67H112.375L112.188 66.2148C111.441 66.7383 110.691 67 109.938 67C108.523 67 107.816 66.2363 107.816 64.709V60.8477H108.9V64.7266C108.9 65.6406 109.354 66.0977 110.26 66.0977C110.881 66.0977 111.473 65.8379 112.035 65.3184V60.8477H113.119ZM118.996 61.8906C118.625 61.7969 118.166 61.75 117.619 61.75C116.311 61.75 115.656 62.459 115.656 63.877C115.656 65.334 116.275 66.0625 117.514 66.0625C118.076 66.0625 118.57 65.957 118.996 65.7461V61.8906ZM120.08 67C120.08 68.4844 119.137 69.2266 117.25 69.2266C116.492 69.2266 115.82 69.1289 115.234 68.9336V68.0547C115.832 68.25 116.508 68.3477 117.262 68.3477C118.418 68.3477 118.996 67.8984 118.996 67V66.707C118.535 66.9023 118.039 67 117.508 67C115.562 67 114.59 65.9629 114.59 63.8887C114.59 61.8613 115.615 60.8477 117.666 60.8477C118.498 60.8477 119.303 60.9316 120.08 61.0996V67ZM116.02 58.6211H116.811C116.811 59.207 117.064 59.5 117.572 59.5C118.08 59.5 118.334 59.207 118.334 58.6211H119.125C119.125 59.6367 118.607 60.1445 117.572 60.1445C116.537 60.1445 116.02 59.6367 116.02 58.6211ZM127.146 60.8477V67H126.402L126.215 66.2148C125.469 66.7383 124.719 67 123.965 67C122.551 67 121.844 66.2363 121.844 64.709V60.8477H122.928V64.7266C122.928 65.6406 123.381 66.0977 124.287 66.0977C124.908 66.0977 125.5 65.8379 126.062 65.3184V60.8477H127.146Z" fill="black"/>
<defs>
<clipPath id="clip0_412_78">
<rect width="48" height="60" fill="white" transform="translate(21 19)"/>
</clipPath>
</defs>
</svg>
