<svg width="375" height="382" viewBox="0 0 375 382" fill="none" xmlns="http://www.w3.org/2000/svg">
<circle cx="434" cy="183" r="199" fill="#FFDBB0"/>
<circle cx="166" cy="-62" r="350" fill="#FEA236" fill-opacity="0.85"/>
<path d="M235 -93C235 16.9047 145.905 106 36 106C-73.9047 106 -163 16.9047 -163 -93C-163 -202.905 -73.9047 -292 36 -292C145.905 -292 235 -202.905 235 -93Z" fill="#FDD09B"/>
<path d="M48.144 175.552C45.9053 175.552 43.866 175.261 42.026 174.678C40.186 174.065 38.6373 173.267 37.38 172.286L39.588 168.606C40.692 169.526 41.934 170.277 43.314 170.86C44.694 171.443 46.304 171.734 48.144 171.734C50.352 171.734 52.1 171.274 53.388 170.354C54.676 169.434 55.32 168.192 55.32 166.628C55.32 165.739 55.136 164.957 54.768 164.282C54.4 163.577 53.6793 162.902 52.606 162.258C51.5633 161.583 50.0147 160.863 47.96 160.096C45.752 159.237 43.9887 158.379 42.67 157.52C41.3513 156.631 40.4007 155.634 39.818 154.53C39.266 153.395 38.99 152.061 38.99 150.528C38.99 148.995 39.404 147.615 40.232 146.388C41.0907 145.131 42.3327 144.134 43.958 143.398C45.614 142.631 47.6073 142.248 49.938 142.248C51.8393 142.248 53.5413 142.447 55.044 142.846C56.5773 143.214 58.0647 143.751 59.506 144.456L57.896 148.182C56.8533 147.569 55.6267 147.063 54.216 146.664C52.836 146.235 51.3793 146.02 49.846 146.02C47.822 146.02 46.2273 146.419 45.062 147.216C43.8967 148.013 43.314 149.041 43.314 150.298C43.314 151.095 43.4827 151.801 43.82 152.414C44.1573 153.027 44.8167 153.625 45.798 154.208C46.81 154.791 48.3127 155.45 50.306 156.186C52.698 157.075 54.584 158.011 55.964 158.992C57.3747 159.973 58.3713 161.047 58.954 162.212C59.5367 163.347 59.828 164.65 59.828 166.122C59.828 168.115 59.322 169.817 58.31 171.228C57.3287 172.639 55.9487 173.712 54.17 174.448C52.422 175.184 50.4133 175.552 48.144 175.552ZM48.1792 186.224C47.3512 186.224 46.5539 186.147 45.7872 185.994C45.0206 185.841 44.2846 185.611 43.5792 185.304L44.6832 182.406C45.6952 182.927 46.7992 183.188 47.9952 183.188C48.7926 183.188 49.4519 183.05 49.9732 182.774C50.4946 182.498 50.7552 182.069 50.7552 181.486C50.7552 180.934 50.3872 180.443 49.6512 180.014C48.9459 179.585 47.5812 179.37 45.5572 179.37L47.1672 175H50.2952L49.3292 177.714C50.8626 177.714 52.1046 178.051 53.0552 178.726C54.0059 179.431 54.4812 180.459 54.4812 181.808C54.4812 182.943 53.9599 183.955 52.9172 184.844C51.8746 185.764 50.2952 186.224 48.1792 186.224ZM65.8245 175V151.08H69.9645V175H65.8245ZM67.8945 146.986C67.0972 146.986 66.4072 146.695 65.8245 146.112C65.2725 145.529 64.9965 144.855 64.9965 144.088C64.9965 143.199 65.2572 142.493 65.7785 141.972C66.2999 141.451 67.0052 141.19 67.8945 141.19C68.6919 141.19 69.3665 141.481 69.9185 142.064C70.5012 142.616 70.7925 143.291 70.7925 144.088C70.7925 144.947 70.5319 145.652 70.0105 146.204C69.4892 146.725 68.7839 146.986 67.8945 146.986ZM77.7845 175V155.542H74.1045V151.954H77.7845V149.148C77.7845 146.449 78.5359 144.318 80.0385 142.754C81.5412 141.19 83.5039 140.408 85.9265 140.408C87.1839 140.408 88.2879 140.561 89.2385 140.868C90.1892 141.144 91.0939 141.497 91.9525 141.926L90.7105 145.422C90.0665 145.085 89.3765 144.778 88.6405 144.502C87.9045 144.226 87.0919 144.088 86.2025 144.088C84.9145 144.088 83.8719 144.502 83.0745 145.33C82.3079 146.127 81.9245 147.308 81.9245 148.872V151.954H89.0085V155.542H81.9245V175H77.7845ZM93.3167 175V151.08H97.3187V156.278C97.7174 155.266 98.2541 154.331 98.9287 153.472C99.6034 152.583 100.447 151.877 101.459 151.356C102.471 150.804 103.651 150.528 105.001 150.528C105.461 150.528 105.921 150.559 106.381 150.62C106.841 150.651 107.224 150.712 107.531 150.804L106.289 155.082C105.706 154.837 105.016 154.714 104.219 154.714C103.084 154.714 101.995 155.036 100.953 155.68C99.9407 156.324 99.0974 157.321 98.4227 158.67C97.7787 160.019 97.4567 161.737 97.4567 163.822V175H93.3167ZM119.865 175.552C116.431 175.552 113.701 174.463 111.677 172.286C109.684 170.078 108.687 166.996 108.687 163.04C108.687 160.648 109.132 158.517 110.021 156.646C110.941 154.745 112.214 153.257 113.839 152.184C115.465 151.08 117.351 150.528 119.497 150.528C121.797 150.528 123.699 151.034 125.201 152.046C126.735 153.027 127.885 154.361 128.651 156.048C129.418 157.735 129.801 159.59 129.801 161.614C129.801 162.687 129.755 163.73 129.663 164.742H112.919C113.195 166.981 113.977 168.729 115.265 169.986C116.553 171.243 118.255 171.872 120.371 171.872C121.751 171.872 122.993 171.734 124.097 171.458C125.201 171.151 126.259 170.768 127.271 170.308L128.237 173.85C127.133 174.341 125.891 174.739 124.511 175.046C123.131 175.383 121.583 175.552 119.865 175.552ZM112.873 161.384H125.983C125.983 159.053 125.401 157.259 124.235 156.002C123.07 154.745 121.46 154.116 119.405 154.116C117.627 154.116 116.155 154.745 114.989 156.002C113.824 157.229 113.119 159.023 112.873 161.384ZM135.319 175V151.08H139.321V155.082C140.179 153.794 141.268 152.721 142.587 151.862C143.905 150.973 145.408 150.528 147.095 150.528C148.996 150.528 150.545 150.988 151.741 151.908C152.967 152.828 153.826 154.055 154.317 155.588C155.267 154.177 156.387 152.981 157.675 152C158.993 151.019 160.619 150.528 162.551 150.528C165.157 150.528 167.089 151.356 168.347 153.012C169.635 154.637 170.279 156.769 170.279 159.406V175H166.139V159.728C166.139 158.072 165.755 156.738 164.989 155.726C164.222 154.683 163.164 154.162 161.815 154.162C160.435 154.162 159.147 154.683 157.951 155.726C156.785 156.738 155.758 157.934 154.869 159.314V175H150.729V159.728C150.729 158.072 150.345 156.738 149.579 155.726C148.812 154.683 147.754 154.162 146.405 154.162C145.055 154.162 143.783 154.668 142.587 155.68C141.391 156.661 140.348 157.827 139.459 159.176V175H135.319ZM177.41 175V151.08H181.55V175H177.41ZM179.48 146.986C178.683 146.986 177.993 146.695 177.41 146.112C176.858 145.529 176.582 144.855 176.582 144.088C176.582 143.199 176.843 142.493 177.364 141.972C177.886 141.451 178.591 141.19 179.48 141.19C180.278 141.19 180.952 141.481 181.504 142.064C182.087 142.616 182.378 143.291 182.378 144.088C182.378 144.947 182.118 145.652 181.596 146.204C181.075 146.725 180.37 146.986 179.48 146.986ZM51.364 229.552C47.6533 229.552 44.74 228.448 42.624 226.24C40.508 224.032 39.45 220.873 39.45 216.764V196.8H43.82V216.074C43.82 219.141 44.4487 221.517 45.706 223.204C46.9633 224.891 48.8493 225.734 51.364 225.734C53.9707 225.734 55.918 224.921 57.206 223.296C58.494 221.64 59.138 219.233 59.138 216.074V196.8H63.37V216.58C63.37 219.279 62.864 221.609 61.852 223.572C60.8707 225.504 59.4753 226.991 57.666 228.034C55.8873 229.046 53.7867 229.552 51.364 229.552ZM70.4964 229V205.08H74.4984V209.082C75.3571 207.794 76.4457 206.721 77.7644 205.862C79.1137 204.973 80.7084 204.528 82.5484 204.528C85.2471 204.528 87.2557 205.341 88.5744 206.966C89.9237 208.591 90.5984 210.738 90.5984 213.406V229H86.4584V213.866C86.4584 212.149 86.0444 210.769 85.2164 209.726C84.4191 208.683 83.2997 208.162 81.8584 208.162C80.4477 208.162 79.1137 208.668 77.8564 209.68C76.5991 210.661 75.5257 211.827 74.6364 213.176V229H70.4964ZM105.539 229.552C104.159 229.552 102.856 229.261 101.629 228.678C100.402 228.095 99.4057 227.16 98.6391 225.872C97.8724 224.553 97.4891 222.805 97.4891 220.628V205.08H101.629V220.076C101.629 221.947 102.028 223.388 102.825 224.4C103.622 225.381 104.788 225.872 106.321 225.872C107.578 225.872 108.79 225.627 109.955 225.136C111.151 224.615 112.209 223.925 113.129 223.066V205.08H117.269V222.79C117.269 224.109 117.545 224.983 118.097 225.412C118.68 225.811 119.308 226.01 119.983 226.01L119.109 229.23C116.257 229.23 114.494 228.095 113.819 225.826C112.746 226.93 111.504 227.835 110.093 228.54C108.682 229.215 107.164 229.552 105.539 229.552ZM133.853 229.552C131.553 229.552 129.728 228.801 128.379 227.298C127.06 225.765 126.401 223.587 126.401 220.766V209.542H122.261V205.954H126.493L127.367 198.41H130.541V205.954H137.165V209.542H130.541V221.088C130.541 222.867 130.909 224.109 131.645 224.814C132.411 225.519 133.316 225.872 134.359 225.872C135.125 225.872 135.846 225.749 136.521 225.504C137.226 225.259 137.87 224.967 138.453 224.63L139.603 227.942C138.989 228.31 138.161 228.663 137.119 229C136.076 229.368 134.987 229.552 133.853 229.552ZM152.136 229.552C149.836 229.552 148.011 228.801 146.662 227.298C145.343 225.765 144.684 223.587 144.684 220.766V209.542H140.544V205.954H144.776L145.65 198.41H148.824V205.954H155.448V209.542H148.824V221.088C148.824 222.867 149.192 224.109 149.928 224.814C150.695 225.519 151.599 225.872 152.642 225.872C153.409 225.872 154.129 225.749 154.804 225.504C155.509 225.259 156.153 224.967 156.736 224.63L157.886 227.942C157.273 228.31 156.445 228.663 155.402 229C154.359 229.368 153.271 229.552 152.136 229.552ZM169.643 229.552C168.263 229.552 166.959 229.261 165.733 228.678C164.506 228.095 163.509 227.16 162.743 225.872C161.976 224.553 161.593 222.805 161.593 220.628V205.08H165.733V220.076C165.733 221.947 166.131 223.388 166.929 224.4C167.726 225.381 168.891 225.872 170.425 225.872C171.682 225.872 172.893 225.627 174.059 225.136C175.255 224.615 176.313 223.925 177.233 223.066V205.08H181.373V222.79C181.373 224.109 181.649 224.983 182.201 225.412C182.783 225.811 183.412 226.01 184.087 226.01L183.213 229.23C180.361 229.23 178.597 228.095 177.923 225.826C176.849 226.93 175.607 227.835 174.197 228.54C172.786 229.215 171.268 229.552 169.643 229.552ZM189.584 229V205.08H193.586V209.082C194.445 207.794 195.534 206.721 196.852 205.862C198.171 204.973 199.674 204.528 201.36 204.528C203.262 204.528 204.81 204.988 206.006 205.908C207.233 206.828 208.092 208.055 208.582 209.588C209.533 208.177 210.652 206.981 211.94 206C213.259 205.019 214.884 204.528 216.816 204.528C219.423 204.528 221.355 205.356 222.612 207.012C223.9 208.637 224.544 210.769 224.544 213.406V229H220.404V213.728C220.404 212.072 220.021 210.738 219.254 209.726C218.488 208.683 217.43 208.162 216.08 208.162C214.7 208.162 213.412 208.683 212.216 209.726C211.051 210.738 210.024 211.934 209.134 213.314V229H204.994V213.728C204.994 212.072 204.611 210.738 203.844 209.726C203.078 208.683 202.02 208.162 200.67 208.162C199.321 208.162 198.048 208.668 196.852 209.68C195.656 210.661 194.614 211.827 193.724 213.176V229H189.584Z" fill="white"/>
<g clip-path="url(#clip0_407_17)">
<path d="M21 47.6048C24.7894 47.6048 25.3226 45.5516 25.3226 43.7093C25.3226 42.2368 25.1094 40.7644 24.8956 39.2878C24.6819 37.8112 24.4681 36.3929 24.4681 34.9187C24.4681 30.0761 27.6705 28.0229 32.2063 28.0229H44.4718L44.2151 30.9184H32.3675C29.2188 30.9184 28.1512 32.6029 28.1512 35.4453C28.1512 36.6556 28.3112 37.919 28.525 39.1824C28.7381 40.4987 28.8982 41.7615 28.8982 43.1833C28.9519 46.5517 27.4573 48.2362 25.0563 48.8681V48.9736C27.4573 49.5525 28.9519 51.3419 28.8982 54.7108C28.8982 56.132 28.7381 57.4478 28.525 58.7112C28.3112 60.0275 28.1512 61.2379 28.1512 62.5013C28.1512 65.4462 29.3789 67.0812 32.3675 67.0812H33.3277V69.9748H32.2069C27.778 69.9748 24.4681 68.0813 24.4681 62.7645C24.4681 61.3433 24.6819 59.8697 24.895 58.4479C25.1082 57.0261 25.322 55.6055 25.322 54.1843C25.322 52.5528 24.7888 50.2893 20.9994 50.2893L21 47.6048Z" fill="black"/>
<path d="M32.4661 69.9748L47.0563 18.9985H50.6121L35.97 69.9748H32.4661Z" fill="black"/>
<path d="M69.0006 50.3948C65.2113 50.3948 64.678 52.4474 64.678 54.2897C64.678 55.7621 64.8912 57.2346 65.1044 58.7112C65.3176 60.1877 65.5313 61.6066 65.5313 63.0802C65.5313 67.9234 62.3295 69.976 57.7932 69.976H45.5282L45.785 67.0812H57.6331C60.7818 67.0812 61.8495 65.3967 61.8495 62.5543C61.8495 61.3433 61.6894 60.0805 61.4757 58.8166C61.2625 57.5008 61.1024 56.2375 61.1024 54.8162C61.0487 51.4473 62.5433 49.7628 64.9444 49.1314V49.026C62.5433 48.447 61.0487 46.6571 61.1024 43.2881C61.1024 41.8669 61.2625 40.5511 61.4757 39.2878C61.6894 37.972 61.8495 36.7611 61.8495 35.4977C61.8495 32.5528 60.6218 30.9184 57.6331 30.9184H56.673V28.0229H57.7932C62.2227 28.0229 65.5313 29.9183 65.5313 35.235C65.5313 36.6562 65.3182 38.1298 65.1044 39.5511C64.8906 40.9723 64.678 42.3935 64.678 43.8147C64.678 45.4468 65.2113 47.7102 69.0006 47.7102V50.3948Z" fill="black"/>
<path d="M57.5346 28.0229L42.9444 78.9998H39.3885L54.0307 28.0229H57.5346Z" fill="black"/>
<path d="M54.3656 19L48.3299 40.0855H46.8604L52.917 19H54.3656Z" fill="black"/>
<path d="M43.1415 57.9126L37.1063 78.9981H35.6344L41.6916 57.9126H43.1415Z" fill="black"/>
</g>
<path d="M75.2559 32.6211V41H74.1719V32.6211H75.2559ZM75.3145 30.3945V31.5078H74.1133V30.3945H75.3145ZM76.5801 32.6211H77.7812L80.1953 36.998L82.6445 32.6211H83.9043L80.7051 38.0703V41H79.6211V38.0703L76.5801 32.6211ZM90.7012 32.6211V33.5H88.0645V41H86.9805V33.5H84.3438V32.6211H90.7012ZM97.4746 32.6211V33.5H93.0801V36.3125H97.2695V37.1914H93.0801V40.1211H97.5625V41H91.9961V32.6211H97.4746ZM73.1465 45.6211H74.3477L76.7617 49.998L79.2109 45.6211H80.4707L77.2715 51.0703V54H76.1875V51.0703L73.1465 45.6211ZM81.2031 52.1426C81.2031 50.8809 82.0352 50.25 83.6992 50.25C84.2344 50.25 84.7695 50.2891 85.3047 50.3672V49.7871C85.3047 49.0801 84.752 48.7266 83.6465 48.7266C83.0137 48.7266 82.3652 48.8242 81.7012 49.0195V48.1406C82.3652 47.9453 83.0137 47.8477 83.6465 47.8477C85.4746 47.8477 86.3887 48.4844 86.3887 49.7578V54H85.7793L85.4043 53.3906C84.791 53.7969 84.123 54 83.4004 54C81.9355 54 81.2031 53.3809 81.2031 52.1426ZM83.6992 51.1289C82.7578 51.1289 82.2871 51.4609 82.2871 52.125C82.2871 52.7891 82.6582 53.1211 83.4004 53.1211C84.1504 53.1211 84.7852 52.9219 85.3047 52.5234V51.2461C84.7695 51.168 84.2344 51.1289 83.6992 51.1289ZM87.9766 47.8477H92.7812V48.7266L89.1074 53.1797H92.6641V54H87.8594V53.1797L91.5801 48.7266H87.9766V47.8477ZM95.4473 47.8477V54H94.3633V47.8477H95.4473ZM98.4707 45.6211V54H97.3867V45.6211H98.4707ZM101.494 47.8477V54H100.41V47.8477H101.494ZM103.375 54V47.8477H104.107L104.289 48.6211C104.879 48.1055 105.521 47.8477 106.217 47.8477C107.107 47.8477 107.715 48.1289 108.039 48.6914C108.707 48.1289 109.385 47.8477 110.072 47.8477C111.486 47.8477 112.193 48.627 112.193 50.1855V54H111.109V50.127C111.109 49.209 110.723 48.75 109.949 48.75C109.371 48.75 108.83 49.0156 108.326 49.5469V54H107.242V50.1445C107.242 49.2148 106.859 48.75 106.094 48.75C105.484 48.75 104.939 49.0156 104.459 49.5469V54H103.375ZM79.6504 58.6211V59.5H77.0137V67H75.9297V59.5H73.293V58.6211H79.6504ZM81.6191 63.9004C81.6191 65.3809 82.2344 66.1211 83.4648 66.1211C84.6953 66.1211 85.3105 65.3809 85.3105 63.9004C85.3105 62.4512 84.6953 61.7266 83.4648 61.7266C82.2344 61.7266 81.6191 62.4512 81.6191 63.9004ZM80.5352 63.9238C80.5352 61.873 81.5117 60.8477 83.4648 60.8477C85.418 60.8477 86.3945 61.873 86.3945 63.9238C86.3945 65.9707 85.418 66.9941 83.4648 66.9941C81.5195 66.9941 80.543 65.9707 80.5352 63.9238ZM88.9434 65.7461C89.3691 65.957 89.8438 66.0625 90.3672 66.0625C91.6445 66.0625 92.2832 65.2949 92.2832 63.7598C92.2832 62.4199 91.6484 61.75 90.3789 61.75C89.832 61.75 89.3535 61.7969 88.9434 61.8906V65.7461ZM87.8594 61.0996C88.6758 60.9316 89.5195 60.8477 90.3906 60.8477C92.3633 60.8477 93.3496 61.8223 93.3496 63.7715C93.3496 65.9238 92.3574 67 90.373 67C89.8809 67 89.4043 66.9023 88.9434 66.707V69.2266H87.8594V61.0996ZM95.9629 58.6211V67H94.8789V58.6211H95.9629ZM103.088 60.8477V67H102.344L102.156 66.2148C101.41 66.7383 100.66 67 99.9062 67C98.4922 67 97.7852 66.2363 97.7852 64.709V60.8477H98.8691V64.7266C98.8691 65.6406 99.3223 66.0977 100.229 66.0977C100.85 66.0977 101.441 65.8379 102.004 65.3184V60.8477H103.088ZM105.994 58.6211V67H104.91V58.6211H105.994ZM113.119 60.8477V67H112.375L112.188 66.2148C111.441 66.7383 110.691 67 109.938 67C108.523 67 107.816 66.2363 107.816 64.709V60.8477H108.9V64.7266C108.9 65.6406 109.354 66.0977 110.26 66.0977C110.881 66.0977 111.473 65.8379 112.035 65.3184V60.8477H113.119ZM118.996 61.8906C118.625 61.7969 118.166 61.75 117.619 61.75C116.311 61.75 115.656 62.459 115.656 63.877C115.656 65.334 116.275 66.0625 117.514 66.0625C118.076 66.0625 118.57 65.957 118.996 65.7461V61.8906ZM120.08 67C120.08 68.4844 119.137 69.2266 117.25 69.2266C116.492 69.2266 115.82 69.1289 115.234 68.9336V68.0547C115.832 68.25 116.508 68.3477 117.262 68.3477C118.418 68.3477 118.996 67.8984 118.996 67V66.707C118.535 66.9023 118.039 67 117.508 67C115.562 67 114.59 65.9629 114.59 63.8887C114.59 61.8613 115.615 60.8477 117.666 60.8477C118.498 60.8477 119.303 60.9316 120.08 61.0996V67ZM116.02 58.6211H116.811C116.811 59.207 117.064 59.5 117.572 59.5C118.08 59.5 118.334 59.207 118.334 58.6211H119.125C119.125 59.6367 118.607 60.1445 117.572 60.1445C116.537 60.1445 116.02 59.6367 116.02 58.6211ZM127.146 60.8477V67H126.402L126.215 66.2148C125.469 66.7383 124.719 67 123.965 67C122.551 67 121.844 66.2363 121.844 64.709V60.8477H122.928V64.7266C122.928 65.6406 123.381 66.0977 124.287 66.0977C124.908 66.0977 125.5 65.8379 126.062 65.3184V60.8477H127.146Z" fill="black"/>
<defs>
<clipPath id="clip0_407_17">
<rect width="48" height="60" fill="white" transform="translate(21 19)"/>
</clipPath>
</defs>
</svg>
