<svg width="375" height="382" viewBox="0 0 375 382" fill="none" xmlns="http://www.w3.org/2000/svg">
<circle cx="434" cy="183" r="199" fill="#FFDBB0"/>
<circle cx="166" cy="-62" r="350" fill="#FEA236" fill-opacity="0.85"/>
<path d="M235 -93C235 16.9047 145.905 106 36 106C-73.9047 106 -163 16.9047 -163 -93C-163 -202.905 -73.9047 -292 36 -292C145.905 -292 235 -202.905 235 -93Z" fill="#FDD09B"/>
<path d="M48.144 175.552C45.9053 175.552 43.866 175.261 42.026 174.678C40.186 174.065 38.6373 173.267 37.38 172.286L39.588 168.606C40.692 169.526 41.934 170.277 43.314 170.86C44.694 171.443 46.304 171.734 48.144 171.734C50.352 171.734 52.1 171.274 53.388 170.354C54.676 169.434 55.32 168.192 55.32 166.628C55.32 165.739 55.136 164.957 54.768 164.282C54.4 163.577 53.6793 162.902 52.606 162.258C51.5633 161.583 50.0147 160.863 47.96 160.096C45.752 159.237 43.9887 158.379 42.67 157.52C41.3513 156.631 40.4007 155.634 39.818 154.53C39.266 153.395 38.99 152.061 38.99 150.528C38.99 148.995 39.404 147.615 40.232 146.388C41.0907 145.131 42.3327 144.134 43.958 143.398C45.614 142.631 47.6073 142.248 49.938 142.248C51.8393 142.248 53.5413 142.447 55.044 142.846C56.5773 143.214 58.0647 143.751 59.506 144.456L57.896 148.182C56.8533 147.569 55.6267 147.063 54.216 146.664C52.836 146.235 51.3793 146.02 49.846 146.02C47.822 146.02 46.2273 146.419 45.062 147.216C43.8967 148.013 43.314 149.041 43.314 150.298C43.314 151.095 43.4827 151.801 43.82 152.414C44.1573 153.027 44.8167 153.625 45.798 154.208C46.81 154.791 48.3127 155.45 50.306 156.186C52.698 157.075 54.584 158.011 55.964 158.992C57.3747 159.973 58.3713 161.047 58.954 162.212C59.5367 163.347 59.828 164.65 59.828 166.122C59.828 168.115 59.322 169.817 58.31 171.228C57.3287 172.639 55.9487 173.712 54.17 174.448C52.422 175.184 50.4133 175.552 48.144 175.552ZM48.1792 186.224C47.3512 186.224 46.5539 186.147 45.7872 185.994C45.0206 185.841 44.2846 185.611 43.5792 185.304L44.6832 182.406C45.6952 182.927 46.7992 183.188 47.9952 183.188C48.7926 183.188 49.4519 183.05 49.9732 182.774C50.4946 182.498 50.7552 182.069 50.7552 181.486C50.7552 180.934 50.3872 180.443 49.6512 180.014C48.9459 179.585 47.5812 179.37 45.5572 179.37L47.1672 175H50.2952L49.3292 177.714C50.8626 177.714 52.1046 178.051 53.0552 178.726C54.0059 179.431 54.4812 180.459 54.4812 181.808C54.4812 182.943 53.9599 183.955 52.9172 184.844C51.8746 185.764 50.2952 186.224 48.1792 186.224ZM65.8245 175V151.08H69.9645V175H65.8245ZM67.8945 146.986C67.0972 146.986 66.4072 146.695 65.8245 146.112C65.2725 145.529 64.9965 144.855 64.9965 144.088C64.9965 143.199 65.2572 142.493 65.7785 141.972C66.2999 141.451 67.0052 141.19 67.8945 141.19C68.6919 141.19 69.3665 141.481 69.9185 142.064C70.5012 142.616 70.7925 143.291 70.7925 144.088C70.7925 144.947 70.5319 145.652 70.0105 146.204C69.4892 146.725 68.7839 146.986 67.8945 146.986ZM77.7845 175V155.542H74.1045V151.954H77.7845V149.148C77.7845 146.449 78.5359 144.318 80.0385 142.754C81.5412 141.19 83.5039 140.408 85.9265 140.408C87.1839 140.408 88.2879 140.561 89.2385 140.868C90.1892 141.144 91.0939 141.497 91.9525 141.926L90.7105 145.422C90.0665 145.085 89.3765 144.778 88.6405 144.502C87.9045 144.226 87.0919 144.088 86.2025 144.088C84.9145 144.088 83.8719 144.502 83.0745 145.33C82.3079 146.127 81.9245 147.308 81.9245 148.872V151.954H89.0085V155.542H81.9245V175H77.7845ZM93.3167 175V151.08H97.3187V156.278C97.7174 155.266 98.2541 154.331 98.9287 153.472C99.6034 152.583 100.447 151.877 101.459 151.356C102.471 150.804 103.651 150.528 105.001 150.528C105.461 150.528 105.921 150.559 106.381 150.62C106.841 150.651 107.224 150.712 107.531 150.804L106.289 155.082C105.706 154.837 105.016 154.714 104.219 154.714C103.084 154.714 101.995 155.036 100.953 155.68C99.9407 156.324 99.0974 157.321 98.4227 158.67C97.7787 160.019 97.4567 161.737 97.4567 163.822V175H93.3167ZM119.865 175.552C116.431 175.552 113.701 174.463 111.677 172.286C109.684 170.078 108.687 166.996 108.687 163.04C108.687 160.648 109.132 158.517 110.021 156.646C110.941 154.745 112.214 153.257 113.839 152.184C115.465 151.08 117.351 150.528 119.497 150.528C121.797 150.528 123.699 151.034 125.201 152.046C126.735 153.027 127.885 154.361 128.651 156.048C129.418 157.735 129.801 159.59 129.801 161.614C129.801 162.687 129.755 163.73 129.663 164.742H112.919C113.195 166.981 113.977 168.729 115.265 169.986C116.553 171.243 118.255 171.872 120.371 171.872C121.751 171.872 122.993 171.734 124.097 171.458C125.201 171.151 126.259 170.768 127.271 170.308L128.237 173.85C127.133 174.341 125.891 174.739 124.511 175.046C123.131 175.383 121.583 175.552 119.865 175.552ZM112.873 161.384H125.983C125.983 159.053 125.401 157.259 124.235 156.002C123.07 154.745 121.46 154.116 119.405 154.116C117.627 154.116 116.155 154.745 114.989 156.002C113.824 157.229 113.119 159.023 112.873 161.384ZM135.319 175V151.08H139.321V155.082C140.179 153.794 141.268 152.721 142.587 151.862C143.936 150.973 145.531 150.528 147.371 150.528C150.069 150.528 152.078 151.341 153.397 152.966C154.746 154.591 155.421 156.738 155.421 159.406V175H151.281V159.866C151.281 158.149 150.867 156.769 150.039 155.726C149.241 154.683 148.122 154.162 146.681 154.162C145.27 154.162 143.936 154.668 142.679 155.68C141.421 156.661 140.348 157.827 139.459 159.176V175H135.319ZM162.541 175V151.08H166.681V175H162.541ZM164.611 146.986C163.814 146.986 163.124 146.695 162.541 146.112C161.989 145.529 161.713 144.855 161.713 144.088C161.713 143.199 161.974 142.493 162.495 141.972C163.017 141.451 163.722 141.19 164.611 141.19C165.409 141.19 166.083 141.481 166.635 142.064C167.218 142.616 167.509 143.291 167.509 144.088C167.509 144.947 167.249 145.652 166.727 146.204C166.206 146.725 165.501 146.986 164.611 146.986ZM48.604 229.368C46.856 229.368 45.3227 229.322 44.004 229.23C42.716 229.138 41.428 229.031 40.14 228.908V196.892C41.5813 196.739 42.992 196.631 44.372 196.57C45.752 196.478 47.3313 196.432 49.11 196.432C51.87 196.432 54.2467 196.861 56.24 197.72C58.264 198.579 59.92 199.759 61.208 201.262C62.5267 202.765 63.4927 204.513 64.106 206.506C64.75 208.469 65.072 210.585 65.072 212.854C65.072 215.093 64.75 217.209 64.106 219.202C63.462 221.195 62.4653 222.959 61.116 224.492C59.7973 225.995 58.0953 227.191 56.01 228.08C53.9553 228.939 51.4867 229.368 48.604 229.368ZM48.742 225.55C51.502 225.55 53.756 225.013 55.504 223.94C57.252 222.867 58.54 221.379 59.368 219.478C60.196 217.546 60.61 215.338 60.61 212.854C60.61 210.646 60.196 208.576 59.368 206.644C58.54 204.712 57.2673 203.163 55.55 201.998C53.8327 200.802 51.64 200.204 48.972 200.204C48.0827 200.204 47.27 200.235 46.534 200.296C45.798 200.327 45.1233 200.373 44.51 200.434V225.32C45.154 225.412 45.8287 225.473 46.534 225.504C47.2393 225.535 47.9753 225.55 48.742 225.55ZM80.6035 229.552C77.1688 229.552 74.4395 228.463 72.4155 226.286C70.4221 224.078 69.4255 220.996 69.4255 217.04C69.4255 214.648 69.8701 212.517 70.7595 210.646C71.6795 208.745 72.9521 207.257 74.5775 206.184C76.2028 205.08 78.0888 204.528 80.2355 204.528C82.5355 204.528 84.4368 205.034 85.9395 206.046C87.4728 207.027 88.6228 208.361 89.3895 210.048C90.1561 211.735 90.5395 213.59 90.5395 215.614C90.5395 216.687 90.4935 217.73 90.4015 218.742H73.6575C73.9335 220.981 74.7155 222.729 76.0035 223.986C77.2915 225.243 78.9935 225.872 81.1095 225.872C82.4895 225.872 83.7315 225.734 84.8355 225.458C85.9395 225.151 86.9975 224.768 88.0095 224.308L88.9755 227.85C87.8715 228.341 86.6295 228.739 85.2495 229.046C83.8695 229.383 82.3208 229.552 80.6035 229.552ZM73.6115 215.384H86.7215C86.7215 213.053 86.1388 211.259 84.9735 210.002C83.8081 208.745 82.1981 208.116 80.1435 208.116C78.3648 208.116 76.8928 208.745 75.7275 210.002C74.5621 211.229 73.8568 213.023 73.6115 215.384ZM105.027 203.884C106.652 203.884 108.109 204.191 109.397 204.804C110.716 205.417 111.835 206.353 112.755 207.61H112.985L113.537 204.344H116.757V229.414C116.757 231.745 116.358 233.692 115.561 235.256C114.764 236.851 113.552 238.047 111.927 238.844C110.302 239.641 108.232 240.04 105.717 240.04C103.938 240.04 102.298 239.902 100.795 239.626C99.323 239.381 98.0043 238.997 96.839 238.476V234.75C97.6363 235.149 98.5103 235.486 99.461 235.762C100.412 236.069 101.439 236.299 102.543 236.452C103.647 236.605 104.782 236.682 105.947 236.682C108.063 236.682 109.719 236.053 110.915 234.796C112.142 233.569 112.755 231.883 112.755 229.736V228.77C112.755 228.402 112.77 227.881 112.801 227.206C112.832 226.501 112.862 226.01 112.893 225.734H112.709C111.85 226.991 110.777 227.927 109.489 228.54C108.232 229.153 106.76 229.46 105.073 229.46C101.884 229.46 99.3843 228.341 97.575 226.102C95.7963 223.863 94.907 220.735 94.907 216.718C94.907 214.081 95.3056 211.811 96.103 209.91C96.931 207.978 98.0963 206.491 99.599 205.448C101.102 204.405 102.911 203.884 105.027 203.884ZM105.579 207.288C104.199 207.288 103.018 207.656 102.037 208.392C101.086 209.128 100.35 210.201 99.829 211.612C99.3383 213.023 99.093 214.74 99.093 216.764C99.093 219.8 99.645 222.131 100.749 223.756C101.884 225.351 103.524 226.148 105.671 226.148C106.928 226.148 108.002 225.995 108.891 225.688C109.78 225.351 110.516 224.845 111.099 224.17C111.682 223.465 112.111 222.575 112.387 221.502C112.663 220.429 112.801 219.156 112.801 217.684V216.718C112.801 214.479 112.54 212.67 112.019 211.29C111.528 209.91 110.746 208.898 109.673 208.254C108.6 207.61 107.235 207.288 105.579 207.288ZM113.169 194.96C113.077 196.187 112.724 197.26 112.111 198.18C111.528 199.1 110.716 199.821 109.673 200.342C108.63 200.863 107.373 201.124 105.901 201.124C103.632 201.124 101.914 200.572 100.749 199.468C99.6143 198.333 98.9856 196.831 98.863 194.96H101.347C101.439 195.788 101.669 196.417 102.037 196.846C102.436 197.245 102.957 197.521 103.601 197.674C104.276 197.797 105.073 197.858 105.993 197.858C106.79 197.858 107.511 197.781 108.155 197.628C108.83 197.475 109.382 197.199 109.811 196.8C110.271 196.371 110.547 195.757 110.639 194.96H113.169ZM124.358 229V205.08H128.498V229H124.358ZM126.428 200.986C125.63 200.986 124.94 200.695 124.358 200.112C123.806 199.529 123.53 198.855 123.53 198.088C123.53 197.199 123.79 196.493 124.312 195.972C124.833 195.451 125.538 195.19 126.428 195.19C127.225 195.19 127.9 195.481 128.452 196.064C129.034 196.616 129.326 197.291 129.326 198.088C129.326 198.947 129.065 199.652 128.544 200.204C128.022 200.725 127.317 200.986 126.428 200.986ZM142.298 229.552C140.488 229.552 138.848 229.322 137.376 228.862C135.934 228.402 134.738 227.804 133.788 227.068L135.536 223.618C136.333 224.293 137.33 224.86 138.526 225.32C139.752 225.749 141.056 225.964 142.436 225.964C144.153 225.964 145.441 225.688 146.3 225.136C147.189 224.553 147.634 223.817 147.634 222.928C147.634 222.284 147.465 221.717 147.128 221.226C146.821 220.735 146.238 220.26 145.38 219.8C144.521 219.309 143.279 218.788 141.654 218.236C139.415 217.469 137.728 216.565 136.594 215.522C135.49 214.449 134.938 212.977 134.938 211.106C134.938 209.266 135.735 207.717 137.33 206.46C138.955 205.172 141.194 204.528 144.046 204.528C145.579 204.528 146.944 204.697 148.14 205.034C149.336 205.341 150.409 205.739 151.36 206.23L150.21 209.634C149.382 209.143 148.431 208.745 147.358 208.438C146.315 208.131 145.15 207.978 143.862 207.978C142.267 207.978 141.056 208.3 140.228 208.944C139.4 209.588 138.986 210.293 138.986 211.06C138.986 211.796 139.308 212.425 139.952 212.946C140.596 213.467 141.853 214.035 143.724 214.648C146.76 215.66 148.876 216.779 150.072 218.006C151.268 219.233 151.866 220.766 151.866 222.606C151.866 224.753 150.992 226.455 149.244 227.712C147.526 228.939 145.211 229.552 142.298 229.552ZM142.066 240.224C141.238 240.224 140.441 240.147 139.674 239.994C138.907 239.841 138.171 239.611 137.466 239.304L138.57 236.406C139.582 236.927 140.686 237.188 141.882 237.188C142.679 237.188 143.339 237.05 143.86 236.774C144.381 236.498 144.642 236.069 144.642 235.486C144.642 234.934 144.274 234.443 143.538 234.014C142.833 233.585 141.468 233.37 139.444 233.37L141.054 229H144.182L143.216 231.714C144.749 231.714 145.991 232.051 146.942 232.726C147.893 233.431 148.368 234.459 148.368 235.808C148.368 236.943 147.847 237.955 146.804 238.844C145.761 239.764 144.182 240.224 142.066 240.224ZM165.747 229.552C163.447 229.552 161.623 228.801 160.273 227.298C158.955 225.765 158.295 223.587 158.295 220.766V209.542H154.155V205.954H158.387L159.261 198.41H162.435V205.954H169.059V209.542H162.435V221.088C162.435 222.867 162.803 224.109 163.539 224.814C164.306 225.519 165.211 225.872 166.253 225.872C167.02 225.872 167.741 225.749 168.415 225.504C169.121 225.259 169.765 224.967 170.347 224.63L171.497 227.942C170.884 228.31 170.056 228.663 169.013 229C167.971 229.368 166.882 229.552 165.747 229.552ZM175.659 229V205.08H179.799V229H175.659ZM177.729 200.986C176.931 200.986 176.241 200.695 175.659 200.112C175.107 199.529 174.831 198.855 174.831 198.088C174.831 197.199 175.091 196.493 175.613 195.972C176.134 195.451 176.839 195.19 177.729 195.19C178.526 195.19 179.201 195.481 179.753 196.064C180.335 196.616 180.627 197.291 180.627 198.088C180.627 198.947 180.366 199.652 179.845 200.204C179.323 200.725 178.618 200.986 177.729 200.986ZM187.159 229V205.08H191.161V210.278C191.559 209.266 192.096 208.331 192.771 207.472C193.445 206.583 194.289 205.877 195.301 205.356C196.313 204.804 197.493 204.528 198.843 204.528C199.303 204.528 199.763 204.559 200.223 204.62C200.683 204.651 201.066 204.712 201.373 204.804L200.131 209.082C199.548 208.837 198.858 208.714 198.061 208.714C196.926 208.714 195.837 209.036 194.795 209.68C193.783 210.324 192.939 211.321 192.265 212.67C191.621 214.019 191.299 215.737 191.299 217.822V229H187.159Z" fill="white"/>
<g clip-path="url(#clip0_412_108)">
<path d="M21 47.6048C24.7894 47.6048 25.3226 45.5516 25.3226 43.7093C25.3226 42.2368 25.1094 40.7644 24.8956 39.2878C24.6819 37.8112 24.4681 36.3929 24.4681 34.9187C24.4681 30.0761 27.6705 28.0229 32.2063 28.0229H44.4718L44.2151 30.9184H32.3675C29.2188 30.9184 28.1512 32.6029 28.1512 35.4453C28.1512 36.6556 28.3112 37.919 28.525 39.1824C28.7381 40.4987 28.8982 41.7615 28.8982 43.1833C28.9519 46.5517 27.4573 48.2362 25.0563 48.8681V48.9736C27.4573 49.5525 28.9519 51.3419 28.8982 54.7108C28.8982 56.132 28.7381 57.4478 28.525 58.7112C28.3112 60.0275 28.1512 61.2379 28.1512 62.5013C28.1512 65.4462 29.3789 67.0812 32.3675 67.0812H33.3277V69.9748H32.2069C27.778 69.9748 24.4681 68.0813 24.4681 62.7645C24.4681 61.3433 24.6819 59.8697 24.895 58.4479C25.1082 57.0261 25.322 55.6055 25.322 54.1843C25.322 52.5528 24.7888 50.2893 20.9994 50.2893L21 47.6048Z" fill="black"/>
<path d="M32.466 69.9748L47.0562 18.9985H50.6121L35.9699 69.9748H32.466Z" fill="black"/>
<path d="M69.0006 50.3948C65.2112 50.3948 64.678 52.4474 64.678 54.2897C64.678 55.7621 64.8912 57.2346 65.1043 58.7112C65.3175 60.1877 65.5313 61.6066 65.5313 63.0802C65.5313 67.9234 62.3295 69.976 57.7931 69.976H45.5281L45.7849 67.0812H57.6331C60.7817 67.0812 61.8494 65.3967 61.8494 62.5543C61.8494 61.3433 61.6894 60.0805 61.4756 58.8166C61.2624 57.5008 61.1024 56.2375 61.1024 54.8162C61.0486 51.4473 62.5433 49.7628 64.9443 49.1314V49.026C62.5433 48.447 61.0486 46.6571 61.1024 43.2881C61.1024 41.8669 61.2624 40.5511 61.4756 39.2878C61.6894 37.972 61.8494 36.7611 61.8494 35.4977C61.8494 32.5528 60.6217 30.9184 57.6331 30.9184H56.6729V28.0229H57.7931C62.2226 28.0229 65.5313 29.9183 65.5313 35.235C65.5313 36.6562 65.3181 38.1298 65.1043 39.5511C64.8906 40.9723 64.678 42.3935 64.678 43.8147C64.678 45.4468 65.2112 47.7102 69.0006 47.7102V50.3948Z" fill="black"/>
<path d="M57.5346 28.0229L42.9444 78.9998H39.3885L54.0306 28.0229H57.5346Z" fill="black"/>
<path d="M54.3656 19L48.3299 40.0855H46.8604L52.917 19H54.3656Z" fill="black"/>
<path d="M43.1414 57.9126L37.1063 78.9981H35.6344L41.6916 57.9126H43.1414Z" fill="black"/>
</g>
<path d="M75.2559 32.6211V41H74.1719V32.6211H75.2559ZM75.3145 30.3945V31.5078H74.1133V30.3945H75.3145ZM76.5801 32.6211H77.7812L80.1953 36.998L82.6445 32.6211H83.9043L80.7051 38.0703V41H79.6211V38.0703L76.5801 32.6211ZM90.7012 32.6211V33.5H88.0645V41H86.9805V33.5H84.3438V32.6211H90.7012ZM97.4746 32.6211V33.5H93.0801V36.3125H97.2695V37.1914H93.0801V40.1211H97.5625V41H91.9961V32.6211H97.4746ZM73.1465 45.6211H74.3477L76.7617 49.998L79.2109 45.6211H80.4707L77.2715 51.0703V54H76.1875V51.0703L73.1465 45.6211ZM81.2031 52.1426C81.2031 50.8809 82.0352 50.25 83.6992 50.25C84.2344 50.25 84.7695 50.2891 85.3047 50.3672V49.7871C85.3047 49.0801 84.752 48.7266 83.6465 48.7266C83.0137 48.7266 82.3652 48.8242 81.7012 49.0195V48.1406C82.3652 47.9453 83.0137 47.8477 83.6465 47.8477C85.4746 47.8477 86.3887 48.4844 86.3887 49.7578V54H85.7793L85.4043 53.3906C84.791 53.7969 84.123 54 83.4004 54C81.9355 54 81.2031 53.3809 81.2031 52.1426ZM83.6992 51.1289C82.7578 51.1289 82.2871 51.4609 82.2871 52.125C82.2871 52.7891 82.6582 53.1211 83.4004 53.1211C84.1504 53.1211 84.7852 52.9219 85.3047 52.5234V51.2461C84.7695 51.168 84.2344 51.1289 83.6992 51.1289ZM87.9766 47.8477H92.7812V48.7266L89.1074 53.1797H92.6641V54H87.8594V53.1797L91.5801 48.7266H87.9766V47.8477ZM95.4473 47.8477V54H94.3633V47.8477H95.4473ZM98.4707 45.6211V54H97.3867V45.6211H98.4707ZM101.494 47.8477V54H100.41V47.8477H101.494ZM103.375 54V47.8477H104.107L104.289 48.6211C104.879 48.1055 105.521 47.8477 106.217 47.8477C107.107 47.8477 107.715 48.1289 108.039 48.6914C108.707 48.1289 109.385 47.8477 110.072 47.8477C111.486 47.8477 112.193 48.627 112.193 50.1855V54H111.109V50.127C111.109 49.209 110.723 48.75 109.949 48.75C109.371 48.75 108.83 49.0156 108.326 49.5469V54H107.242V50.1445C107.242 49.2148 106.859 48.75 106.094 48.75C105.484 48.75 104.939 49.0156 104.459 49.5469V54H103.375ZM79.6504 58.6211V59.5H77.0137V67H75.9297V59.5H73.293V58.6211H79.6504ZM81.6191 63.9004C81.6191 65.3809 82.2344 66.1211 83.4648 66.1211C84.6953 66.1211 85.3105 65.3809 85.3105 63.9004C85.3105 62.4512 84.6953 61.7266 83.4648 61.7266C82.2344 61.7266 81.6191 62.4512 81.6191 63.9004ZM80.5352 63.9238C80.5352 61.873 81.5117 60.8477 83.4648 60.8477C85.418 60.8477 86.3945 61.873 86.3945 63.9238C86.3945 65.9707 85.418 66.9941 83.4648 66.9941C81.5195 66.9941 80.543 65.9707 80.5352 63.9238ZM88.9434 65.7461C89.3691 65.957 89.8438 66.0625 90.3672 66.0625C91.6445 66.0625 92.2832 65.2949 92.2832 63.7598C92.2832 62.4199 91.6484 61.75 90.3789 61.75C89.832 61.75 89.3535 61.7969 88.9434 61.8906V65.7461ZM87.8594 61.0996C88.6758 60.9316 89.5195 60.8477 90.3906 60.8477C92.3633 60.8477 93.3496 61.8223 93.3496 63.7715C93.3496 65.9238 92.3574 67 90.373 67C89.8809 67 89.4043 66.9023 88.9434 66.707V69.2266H87.8594V61.0996ZM95.9629 58.6211V67H94.8789V58.6211H95.9629ZM103.088 60.8477V67H102.344L102.156 66.2148C101.41 66.7383 100.66 67 99.9062 67C98.4922 67 97.7852 66.2363 97.7852 64.709V60.8477H98.8691V64.7266C98.8691 65.6406 99.3223 66.0977 100.229 66.0977C100.85 66.0977 101.441 65.8379 102.004 65.3184V60.8477H103.088ZM105.994 58.6211V67H104.91V58.6211H105.994ZM113.119 60.8477V67H112.375L112.188 66.2148C111.441 66.7383 110.691 67 109.938 67C108.523 67 107.816 66.2363 107.816 64.709V60.8477H108.9V64.7266C108.9 65.6406 109.354 66.0977 110.26 66.0977C110.881 66.0977 111.473 65.8379 112.035 65.3184V60.8477H113.119ZM118.996 61.8906C118.625 61.7969 118.166 61.75 117.619 61.75C116.311 61.75 115.656 62.459 115.656 63.877C115.656 65.334 116.275 66.0625 117.514 66.0625C118.076 66.0625 118.57 65.957 118.996 65.7461V61.8906ZM120.08 67C120.08 68.4844 119.137 69.2266 117.25 69.2266C116.492 69.2266 115.82 69.1289 115.234 68.9336V68.0547C115.832 68.25 116.508 68.3477 117.262 68.3477C118.418 68.3477 118.996 67.8984 118.996 67V66.707C118.535 66.9023 118.039 67 117.508 67C115.562 67 114.59 65.9629 114.59 63.8887C114.59 61.8613 115.615 60.8477 117.666 60.8477C118.498 60.8477 119.303 60.9316 120.08 61.0996V67ZM116.02 58.6211H116.811C116.811 59.207 117.064 59.5 117.572 59.5C118.08 59.5 118.334 59.207 118.334 58.6211H119.125C119.125 59.6367 118.607 60.1445 117.572 60.1445C116.537 60.1445 116.02 59.6367 116.02 58.6211ZM127.146 60.8477V67H126.402L126.215 66.2148C125.469 66.7383 124.719 67 123.965 67C122.551 67 121.844 66.2363 121.844 64.709V60.8477H122.928V64.7266C122.928 65.6406 123.381 66.0977 124.287 66.0977C124.908 66.0977 125.5 65.8379 126.062 65.3184V60.8477H127.146Z" fill="black"/>
<defs>
<clipPath id="clip0_412_108">
<rect width="48" height="60" fill="white" transform="translate(21 19)"/>
</clipPath>
</defs>
</svg>
