<svg xmlns="http://www.w3.org/2000/svg" xmlns:xlink="http://www.w3.org/1999/xlink" width="500" zoomAndPan="magnify" viewBox="0 0 375 374.999991" height="500" preserveAspectRatio="xMidYMid meet" version="1.0"><defs><g/><clipPath id="a6f024e8e1"><path d="M 238 182 L 328 182 L 328 273 L 238 273 Z M 238 182 " clip-rule="nonzero"/></clipPath><clipPath id="2492d3030c"><path d="M 243.964844 177.414062 L 337.746094 189.027344 L 326.777344 277.601562 L 232.992188 265.988281 Z M 243.964844 177.414062 " clip-rule="nonzero"/></clipPath><clipPath id="f5f0bd3755"><path d="M 243.964844 177.414062 L 337.746094 189.027344 L 326.777344 277.601562 L 232.992188 265.988281 Z M 243.964844 177.414062 " clip-rule="nonzero"/></clipPath><clipPath id="46df44d237"><path d="M 257 191 L 336 191 L 336 252 L 257 252 Z M 257 191 " clip-rule="nonzero"/></clipPath><clipPath id="f9d9a639bb"><path d="M 243.964844 177.414062 L 337.746094 189.027344 L 326.777344 277.601562 L 232.992188 265.988281 Z M 243.964844 177.414062 " clip-rule="nonzero"/></clipPath><clipPath id="2111c1737e"><path d="M 243.964844 177.414062 L 337.746094 189.027344 L 326.777344 277.601562 L 232.992188 265.988281 Z M 243.964844 177.414062 " clip-rule="nonzero"/></clipPath></defs><g fill="#f76a13" fill-opacity="1"><g transform="translate(37.500002, 163.723102)"><g><path d="M 45.046875 -52.546875 L 45.046875 -42.46875 L 29.1875 -42.46875 L 29.1875 0 L 17.359375 0 L 17.359375 -42.46875 L 1.515625 -42.46875 L 1.515625 -52.546875 Z M 45.046875 -52.546875 "/></g></g></g><g fill="#f76a13" fill-opacity="1"><g transform="translate(81.690139, 163.723102)"><g><path d="M 39.359375 -1.359375 C 37.429688 -0.804688 34.953125 -0.289062 31.921875 0.1875 C 28.890625 0.664062 25.707031 0.90625 22.375 0.90625 C 18.976562 0.90625 16.15625 0.453125 13.90625 -0.453125 C 11.664062 -1.359375 9.882812 -2.632812 8.5625 -4.28125 C 7.25 -5.925781 6.3125 -7.882812 5.75 -10.15625 C 5.195312 -12.4375 4.921875 -14.941406 4.921875 -17.671875 L 4.921875 -39.890625 L 16.234375 -39.890625 L 16.234375 -19.03125 C 16.234375 -15.394531 16.710938 -12.765625 17.671875 -11.140625 C 18.628906 -9.523438 20.421875 -8.71875 23.046875 -8.71875 C 23.859375 -8.71875 24.71875 -8.753906 25.625 -8.828125 C 26.539062 -8.910156 27.351562 -9 28.0625 -9.09375 L 28.0625 -39.890625 L 39.359375 -39.890625 Z M 39.359375 -1.359375 "/></g></g></g><g fill="#f76a13" fill-opacity="1"><g transform="translate(123.985295, 163.723102)"><g><path d="M 29.34375 -29.875 C 28.332031 -30.125 27.144531 -30.390625 25.78125 -30.671875 C 24.414062 -30.953125 22.953125 -31.09375 21.390625 -31.09375 C 20.679688 -31.09375 19.832031 -31.023438 18.84375 -30.890625 C 17.851562 -30.765625 17.109375 -30.628906 16.609375 -30.484375 L 16.609375 0 L 5.3125 0 L 5.3125 -37.765625 C 7.332031 -38.472656 9.71875 -39.140625 12.46875 -39.765625 C 15.226562 -40.398438 18.300781 -40.71875 21.6875 -40.71875 C 22.289062 -40.71875 23.019531 -40.679688 23.875 -40.609375 C 24.738281 -40.535156 25.597656 -40.429688 26.453125 -40.296875 C 27.316406 -40.171875 28.175781 -40.019531 29.03125 -39.84375 C 29.894531 -39.664062 30.628906 -39.453125 31.234375 -39.203125 Z M 29.34375 -29.875 "/></g></g></g><g fill="#f76a13" fill-opacity="1"><g transform="translate(153.621879, 163.723102)"><g><path d="M 39.359375 -1.359375 C 37.429688 -0.804688 34.953125 -0.289062 31.921875 0.1875 C 28.890625 0.664062 25.707031 0.90625 22.375 0.90625 C 18.976562 0.90625 16.15625 0.453125 13.90625 -0.453125 C 11.664062 -1.359375 9.882812 -2.632812 8.5625 -4.28125 C 7.25 -5.925781 6.3125 -7.882812 5.75 -10.15625 C 5.195312 -12.4375 4.921875 -14.941406 4.921875 -17.671875 L 4.921875 -39.890625 L 16.234375 -39.890625 L 16.234375 -19.03125 C 16.234375 -15.394531 16.710938 -12.765625 17.671875 -11.140625 C 18.628906 -9.523438 20.421875 -8.71875 23.046875 -8.71875 C 23.859375 -8.71875 24.71875 -8.753906 25.625 -8.828125 C 26.539062 -8.910156 27.351562 -9 28.0625 -9.09375 L 28.0625 -39.890625 L 39.359375 -39.890625 Z M 39.359375 -1.359375 "/></g></g></g><g fill="#f76a13" fill-opacity="1"><g transform="translate(195.917035, 163.723102)"><g><path d="M 5.3125 -38.515625 C 7.226562 -39.078125 9.703125 -39.597656 12.734375 -40.078125 C 15.765625 -40.554688 18.953125 -40.796875 22.296875 -40.796875 C 25.679688 -40.796875 28.5 -40.351562 30.75 -39.46875 C 33 -38.582031 34.78125 -37.328125 36.09375 -35.703125 C 37.40625 -34.085938 38.335938 -32.164062 38.890625 -29.9375 C 39.453125 -27.71875 39.734375 -25.242188 39.734375 -22.515625 L 39.734375 0 L 28.4375 0 L 28.4375 -21.15625 C 28.4375 -24.789062 27.953125 -27.367188 26.984375 -28.890625 C 26.023438 -30.410156 24.234375 -31.171875 21.609375 -31.171875 C 20.796875 -31.171875 19.9375 -31.128906 19.03125 -31.046875 C 18.125 -30.972656 17.316406 -30.882812 16.609375 -30.78125 L 16.609375 0 L 5.3125 0 Z M 5.3125 -38.515625 "/></g></g></g><g fill="#f76a13" fill-opacity="1"><g transform="translate(238.21219, 163.723102)"><g><path d="M 3.40625 -19.9375 C 3.40625 -22.820312 3.875 -25.539062 4.8125 -28.09375 C 5.75 -30.644531 7.101562 -32.867188 8.875 -34.765625 C 10.644531 -36.660156 12.789062 -38.164062 15.3125 -39.28125 C 17.84375 -40.394531 20.726562 -40.953125 23.96875 -40.953125 C 26.082031 -40.953125 28.023438 -40.757812 29.796875 -40.375 C 31.566406 -40 33.285156 -39.457031 34.953125 -38.75 L 32.609375 -29.71875 C 31.546875 -30.125 30.378906 -30.476562 29.109375 -30.78125 C 27.847656 -31.082031 26.4375 -31.234375 24.875 -31.234375 C 21.53125 -31.234375 19.035156 -30.195312 17.390625 -28.125 C 15.753906 -26.050781 14.9375 -23.320312 14.9375 -19.9375 C 14.9375 -16.351562 15.707031 -13.570312 17.25 -11.59375 C 18.789062 -9.625 21.484375 -8.640625 25.328125 -8.640625 C 26.691406 -8.640625 28.15625 -8.765625 29.71875 -9.015625 C 31.289062 -9.273438 32.734375 -9.679688 34.046875 -10.234375 L 35.640625 -0.984375 C 34.328125 -0.429688 32.679688 0.046875 30.703125 0.453125 C 28.734375 0.859375 26.5625 1.0625 24.1875 1.0625 C 20.550781 1.0625 17.414062 0.519531 14.78125 -0.5625 C 12.15625 -1.65625 9.992188 -3.132812 8.296875 -5 C 6.609375 -6.875 5.367188 -9.085938 4.578125 -11.640625 C 3.796875 -14.191406 3.40625 -16.957031 3.40625 -19.9375 Z M 3.40625 -19.9375 "/></g></g></g><g fill="#f76a13" fill-opacity="1"><g transform="translate(273.76118, 163.723102)"><g><path d="M 39.359375 -1.359375 C 37.429688 -0.804688 34.953125 -0.289062 31.921875 0.1875 C 28.890625 0.664062 25.707031 0.90625 22.375 0.90625 C 18.976562 0.90625 16.15625 0.453125 13.90625 -0.453125 C 11.664062 -1.359375 9.882812 -2.632812 8.5625 -4.28125 C 7.25 -5.925781 6.3125 -7.882812 5.75 -10.15625 C 5.195312 -12.4375 4.921875 -14.941406 4.921875 -17.671875 L 4.921875 -39.890625 L 16.234375 -39.890625 L 16.234375 -19.03125 C 16.234375 -15.394531 16.710938 -12.765625 17.671875 -11.140625 C 18.628906 -9.523438 20.421875 -8.71875 23.046875 -8.71875 C 23.859375 -8.71875 24.71875 -8.753906 25.625 -8.828125 C 26.539062 -8.910156 27.351562 -9 28.0625 -9.09375 L 28.0625 -39.890625 L 39.359375 -39.890625 Z M 39.359375 -1.359375 "/></g></g></g><g fill="#f76a13" fill-opacity="1"><g transform="translate(129.560324, 233.482429)"><g><path d="M 4.921875 -49.8125 L 16.234375 -51.640625 L 16.234375 -39.890625 L 29.796875 -39.890625 L 29.796875 -30.484375 L 16.234375 -30.484375 L 16.234375 -16.453125 C 16.234375 -14.078125 16.648438 -12.179688 17.484375 -10.765625 C 18.316406 -9.347656 19.992188 -8.640625 22.515625 -8.640625 C 23.734375 -8.640625 24.984375 -8.753906 26.265625 -8.984375 C 27.554688 -9.210938 28.734375 -9.53125 29.796875 -9.9375 L 31.390625 -1.140625 C 30.023438 -0.578125 28.507812 -0.0976562 26.84375 0.296875 C 25.175781 0.703125 23.128906 0.90625 20.703125 0.90625 C 17.617188 0.90625 15.066406 0.488281 13.046875 -0.34375 C 11.023438 -1.175781 9.40625 -2.335938 8.1875 -3.828125 C 6.976562 -5.316406 6.128906 -7.125 5.640625 -9.25 C 5.160156 -11.375 4.921875 -13.722656 4.921875 -16.296875 Z M 4.921875 -49.8125 "/></g></g></g><g fill="#f76a13" fill-opacity="1"><g transform="translate(160.864494, 233.482429)"><g><path d="M 16.609375 0 L 5.3125 0 L 5.3125 -39.890625 L 16.609375 -39.890625 Z M 17.671875 -51.40625 C 17.671875 -49.332031 17 -47.703125 15.65625 -46.515625 C 14.320312 -45.328125 12.742188 -44.734375 10.921875 -44.734375 C 9.097656 -44.734375 7.515625 -45.328125 6.171875 -46.515625 C 4.835938 -47.703125 4.171875 -49.332031 4.171875 -51.40625 C 4.171875 -53.476562 4.835938 -55.109375 6.171875 -56.296875 C 7.515625 -57.484375 9.097656 -58.078125 10.921875 -58.078125 C 12.742188 -58.078125 14.320312 -57.484375 15.65625 -56.296875 C 17 -55.109375 17.671875 -53.476562 17.671875 -51.40625 Z M 17.671875 -51.40625 "/></g></g></g><g fill="#f76a13" fill-opacity="1"><g transform="translate(180.41974, 233.482429)"><g><path d="M 16.609375 -25.484375 C 17.722656 -26.691406 18.875 -27.953125 20.0625 -29.265625 C 21.25 -30.578125 22.394531 -31.878906 23.5 -33.171875 C 24.613281 -34.460938 25.660156 -35.6875 26.640625 -36.84375 C 27.628906 -38.007812 28.476562 -39.023438 29.1875 -39.890625 L 42.609375 -39.890625 C 39.929688 -36.804688 37.316406 -33.859375 34.765625 -31.046875 C 32.210938 -28.242188 29.421875 -25.351562 26.390625 -22.375 C 27.898438 -21.007812 29.460938 -19.378906 31.078125 -17.484375 C 32.703125 -15.585938 34.269531 -13.625 35.78125 -11.59375 C 37.300781 -9.570312 38.691406 -7.550781 39.953125 -5.53125 C 41.222656 -3.507812 42.285156 -1.664062 43.140625 0 L 30.171875 0 C 29.367188 -1.3125 28.445312 -2.765625 27.40625 -4.359375 C 26.375 -5.953125 25.273438 -7.546875 24.109375 -9.140625 C 22.953125 -10.734375 21.726562 -12.257812 20.4375 -13.71875 C 19.144531 -15.1875 17.867188 -16.425781 16.609375 -17.4375 L 16.609375 0 L 5.3125 0 L 5.3125 -57.015625 L 16.609375 -58.84375 Z M 16.609375 -25.484375 "/></g></g></g><g fill="#f76a13" fill-opacity="1"><g transform="translate(221.992437, 233.482429)"><g/></g></g><g clip-path="url(#a6f024e8e1)"><g clip-path="url(#2492d3030c)"><g clip-path="url(#f5f0bd3755)"><path fill="#e85d2d" d="M 277.320312 271.6875 C 252.863281 268.660156 235.429688 246.296875 238.460938 221.828125 C 241.492188 197.363281 263.855469 179.917969 288.3125 182.949219 C 296.328125 183.941406 303.898438 187.050781 310.210938 191.960938 C 311.539062 192.996094 311.78125 194.910156 310.75 196.226562 C 309.707031 197.566406 307.789062 197.765625 306.484375 196.765625 C 301.035156 192.53125 294.5 189.835938 287.566406 188.976562 C 266.4375 186.363281 247.109375 201.429688 244.492188 222.578125 C 241.875 243.703125 256.945312 263.019531 278.070312 265.636719 C 299.207031 268.253906 318.523438 253.195312 321.140625 232.070312 C 321.347656 230.398438 322.871094 229.222656 324.539062 229.429688 C 326.207031 229.636719 327.398438 231.148438 327.191406 232.820312 C 324.160156 257.285156 301.785156 274.71875 277.320312 271.6875 Z M 277.320312 271.6875 " fill-opacity="1" fill-rule="nonzero"/></g></g></g><g clip-path="url(#46df44d237)"><g clip-path="url(#f9d9a639bb)"><g clip-path="url(#2111c1737e)"><path fill="#f76a13" d="M 276.164062 251.640625 C 276.027344 251.621094 275.890625 251.605469 275.753906 251.570312 C 273.609375 251.183594 271.773438 249.820312 270.765625 247.878906 L 258.648438 224.527344 C 256.855469 221.066406 258.210938 216.804688 261.664062 215.007812 C 265.15625 213.207031 269.378906 214.570312 271.183594 218.023438 L 279.109375 233.324219 L 323.628906 193.632812 C 326.542969 191.03125 330.996094 191.304688 333.589844 194.210938 C 336.179688 197.113281 335.925781 201.578125 333.011719 204.171875 L 281.726562 249.894531 C 280.210938 251.261719 278.175781 251.886719 276.164062 251.640625 Z M 276.164062 251.640625 " fill-opacity="1" fill-rule="nonzero"/></g></g></g></svg>