<svg xmlns="http://www.w3.org/2000/svg" xmlns:xlink="http://www.w3.org/1999/xlink" width="500" zoomAndPan="magnify" viewBox="0 0 375 374.999991" height="500" preserveAspectRatio="xMidYMid meet" version="1.0"><defs><g/><clipPath id="b0c0b51cd4"><path d="M 238 182 L 328 182 L 328 273 L 238 273 Z M 238 182 " clip-rule="nonzero"/></clipPath><clipPath id="179445d41a"><path d="M 243.964844 177.414062 L 337.746094 189.027344 L 326.777344 277.601562 L 232.992188 265.988281 Z M 243.964844 177.414062 " clip-rule="nonzero"/></clipPath><clipPath id="e5b8f9fd41"><path d="M 243.964844 177.414062 L 337.746094 189.027344 L 326.777344 277.601562 L 232.992188 265.988281 Z M 243.964844 177.414062 " clip-rule="nonzero"/></clipPath><clipPath id="4869e2419d"><path d="M 257 191 L 336 191 L 336 252 L 257 252 Z M 257 191 " clip-rule="nonzero"/></clipPath><clipPath id="bc249d8acf"><path d="M 243.964844 177.414062 L 337.746094 189.027344 L 326.777344 277.601562 L 232.992188 265.988281 Z M 243.964844 177.414062 " clip-rule="nonzero"/></clipPath><clipPath id="67215657fa"><path d="M 243.964844 177.414062 L 337.746094 189.027344 L 326.777344 277.601562 L 232.992188 265.988281 Z M 243.964844 177.414062 " clip-rule="nonzero"/></clipPath></defs><path stroke-linecap="butt" transform="matrix(4.362578, 0, 0, 4.362578, 37.500002, 89.559282)" fill="none" stroke-linejoin="miter" d="M 10.323956 4.954088 L 10.323956 7.266009 L 6.69132 7.266009 L 6.69132 16.999898 L 3.98005 16.999898 L 3.98005 7.266009 L 0.34831 7.266009 L 0.34831 4.954088 Z M 19.149909 16.685613 C 18.709373 16.813655 18.140794 16.931847 17.444173 17.042877 C 16.751134 17.153011 16.021383 17.207631 15.254921 17.207631 C 14.480401 17.207631 13.833922 17.10466 13.316381 16.897822 C 12.801527 16.689194 12.392329 16.396399 12.089684 16.019435 C 11.789725 15.640681 11.57662 15.191191 11.448578 14.670068 C 11.321431 14.149841 11.257858 13.576785 11.257858 12.951797 L 11.257858 7.860555 L 13.850935 7.860555 L 13.850935 12.638407 C 13.850935 13.472919 13.959278 14.074628 14.177756 14.445323 C 14.398024 14.816018 14.809908 15.001366 15.412512 15.001366 C 15.598755 15.001366 15.795743 14.993307 16.001685 14.976295 C 16.211208 14.959282 16.398347 14.937793 16.562205 14.912722 L 16.562205 7.860555 L 19.149909 7.860555 Z M 26.549491 10.151882 C 26.317583 10.094577 26.044486 10.03548 25.731096 9.973698 C 25.419497 9.908334 25.084618 9.876099 24.725562 9.876099 C 24.56439 9.876099 24.370089 9.88953 24.143553 9.918183 C 23.917912 9.946836 23.746891 9.977279 23.630489 10.011304 L 23.630489 16.999898 L 21.041889 16.999898 L 21.041889 8.344071 C 21.505706 8.182899 22.05369 8.029785 22.684051 7.885626 C 23.315308 7.73878 24.018197 7.665358 24.792717 7.665358 C 24.93419 7.665358 25.102526 7.675207 25.297723 7.694906 C 25.495606 7.711918 25.692594 7.734303 25.887791 7.762956 C 26.085674 7.790714 26.282662 7.82653 26.477859 7.868613 C 26.675743 7.908011 26.844973 7.956363 26.986446 8.012773 Z M 35.638692 16.685613 C 35.19726 16.813655 34.628681 16.931847 33.932956 17.042877 C 33.239917 17.153011 32.510166 17.207631 31.743704 17.207631 C 30.968288 17.207631 30.32181 17.10466 29.804269 16.897822 C 29.289414 16.689194 28.881112 16.396399 28.578467 16.019435 C 28.278508 15.640681 28.064507 15.191191 27.937361 14.670068 C 27.810214 14.149841 27.74664 13.576785 27.74664 12.951797 L 27.74664 7.860555 L 30.338822 7.860555 L 30.338822 12.638407 C 30.338822 13.472919 30.448061 14.074628 30.665643 14.445323 C 30.885911 14.816018 31.297795 15.001366 31.900399 15.001366 C 32.087537 15.001366 32.28363 14.993307 32.490467 14.976295 C 32.699991 14.959282 32.886234 14.937793 33.050092 14.912722 L 33.050092 7.860555 L 35.638692 7.860555 Z M 37.530671 8.170363 C 37.968522 8.042321 38.536205 7.924128 39.23193 7.813994 C 39.927656 7.702964 40.657406 7.648345 41.421182 7.648345 C 42.199284 7.648345 42.845763 7.749525 43.360618 7.953676 C 43.875472 8.156932 44.282879 8.444355 44.582838 8.815051 C 44.885483 9.185746 45.100379 9.625387 45.227526 10.13487 C 45.354672 10.643457 45.418246 11.21114 45.418246 11.836129 L 45.418246 16.999898 L 42.830541 16.999898 L 42.830541 12.150414 C 42.830541 11.315902 42.719512 10.725833 42.499243 10.381104 C 42.278975 10.032794 41.867091 9.859087 41.264487 9.859087 C 41.08093 9.859087 40.883942 9.867145 40.674419 9.884158 C 40.465791 9.90117 40.280443 9.920869 40.119271 9.943254 L 40.119271 16.999898 L 37.530671 16.999898 Z M 46.788207 12.429779 C 46.788207 11.768078 46.895655 11.145776 47.110551 10.562871 C 47.326342 9.977279 47.635255 9.466902 48.039976 9.031737 C 48.447382 8.595678 48.939852 8.250949 49.516489 7.99576 C 50.096708 7.741467 50.757513 7.61432 51.498009 7.61432 C 51.985106 7.61432 52.43012 7.658194 52.83484 7.745944 C 53.242247 7.833693 53.637118 7.958153 54.018558 8.119325 L 53.479528 10.185907 C 53.236874 10.094577 52.96915 10.013991 52.678145 9.943254 C 52.389827 9.872518 52.065692 9.837597 51.706637 9.837597 C 50.942861 9.837597 50.372491 10.074878 49.996424 10.550335 C 49.620356 11.025792 49.432322 11.652572 49.432322 12.429779 C 49.432322 13.253546 49.608716 13.891071 49.962398 14.344143 C 50.316081 14.793633 50.933011 15.018379 51.812294 15.018379 C 52.126579 15.018379 52.463249 14.989726 52.822305 14.933316 C 53.18136 14.874219 53.510867 14.781098 53.810826 14.653951 L 54.176149 16.775153 C 53.87619 16.902299 53.500122 17.011538 53.04705 17.101973 C 52.594873 17.195095 52.097031 17.241656 51.553523 17.241656 C 50.719011 17.241656 50.000901 17.117195 49.398297 16.868274 C 48.795693 16.619353 48.298746 16.281787 47.908352 15.854682 C 47.521539 15.423995 47.236802 14.916303 47.055931 14.330712 C 46.877747 13.745121 46.788207 13.112073 46.788207 12.429779 Z M 63.1776 16.685613 C 62.736168 16.813655 62.167589 16.931847 61.471864 17.042877 C 60.778825 17.153011 60.049074 17.207631 59.281717 17.207631 C 58.507196 17.207631 57.860718 17.10466 57.343177 16.897822 C 56.828322 16.689194 56.419124 16.396399 56.116479 16.019435 C 55.816521 15.640681 55.603415 15.191191 55.476269 14.670068 C 55.348227 14.149841 55.284653 13.576785 55.284653 12.951797 L 55.284653 7.860555 L 57.87773 7.860555 L 57.87773 12.638407 C 57.87773 13.472919 57.986074 14.074628 58.204551 14.445323 C 58.424819 14.816018 58.836703 15.001366 59.439307 15.001366 C 59.62555 15.001366 59.822538 14.993307 60.02848 14.976295 C 60.238003 14.959282 60.425142 14.937793 60.589 14.912722 L 60.589 7.860555 L 63.1776 7.860555 Z M 63.1776 16.685613 " stroke="#ffffff" stroke-width="4.56309" stroke-opacity="1" stroke-miterlimit="4"/><g fill="#f76a13" fill-opacity="1"><g transform="translate(37.500002, 163.723102)"><g><path d="M 45.046875 -52.546875 L 45.046875 -42.46875 L 29.1875 -42.46875 L 29.1875 0 L 17.359375 0 L 17.359375 -42.46875 L 1.515625 -42.46875 L 1.515625 -52.546875 Z M 45.046875 -52.546875 "/></g></g></g><g fill="#f76a13" fill-opacity="1"><g transform="translate(81.690139, 163.723102)"><g><path d="M 39.359375 -1.359375 C 37.429688 -0.804688 34.953125 -0.289062 31.921875 0.1875 C 28.890625 0.664062 25.707031 0.90625 22.375 0.90625 C 18.976562 0.90625 16.15625 0.453125 13.90625 -0.453125 C 11.664062 -1.359375 9.882812 -2.632812 8.5625 -4.28125 C 7.25 -5.925781 6.3125 -7.882812 5.75 -10.15625 C 5.195312 -12.4375 4.921875 -14.941406 4.921875 -17.671875 L 4.921875 -39.890625 L 16.234375 -39.890625 L 16.234375 -19.03125 C 16.234375 -15.394531 16.710938 -12.765625 17.671875 -11.140625 C 18.628906 -9.523438 20.421875 -8.71875 23.046875 -8.71875 C 23.859375 -8.71875 24.71875 -8.753906 25.625 -8.828125 C 26.539062 -8.910156 27.351562 -9 28.0625 -9.09375 L 28.0625 -39.890625 L 39.359375 -39.890625 Z M 39.359375 -1.359375 "/></g></g></g><g fill="#f76a13" fill-opacity="1"><g transform="translate(123.985295, 163.723102)"><g><path d="M 29.34375 -29.875 C 28.332031 -30.125 27.144531 -30.390625 25.78125 -30.671875 C 24.414062 -30.953125 22.953125 -31.09375 21.390625 -31.09375 C 20.679688 -31.09375 19.832031 -31.023438 18.84375 -30.890625 C 17.851562 -30.765625 17.109375 -30.628906 16.609375 -30.484375 L 16.609375 0 L 5.3125 0 L 5.3125 -37.765625 C 7.332031 -38.472656 9.71875 -39.140625 12.46875 -39.765625 C 15.226562 -40.398438 18.300781 -40.71875 21.6875 -40.71875 C 22.289062 -40.71875 23.019531 -40.679688 23.875 -40.609375 C 24.738281 -40.535156 25.597656 -40.429688 26.453125 -40.296875 C 27.316406 -40.171875 28.175781 -40.019531 29.03125 -39.84375 C 29.894531 -39.664062 30.628906 -39.453125 31.234375 -39.203125 Z M 29.34375 -29.875 "/></g></g></g><g fill="#f76a13" fill-opacity="1"><g transform="translate(153.621879, 163.723102)"><g><path d="M 39.359375 -1.359375 C 37.429688 -0.804688 34.953125 -0.289062 31.921875 0.1875 C 28.890625 0.664062 25.707031 0.90625 22.375 0.90625 C 18.976562 0.90625 16.15625 0.453125 13.90625 -0.453125 C 11.664062 -1.359375 9.882812 -2.632812 8.5625 -4.28125 C 7.25 -5.925781 6.3125 -7.882812 5.75 -10.15625 C 5.195312 -12.4375 4.921875 -14.941406 4.921875 -17.671875 L 4.921875 -39.890625 L 16.234375 -39.890625 L 16.234375 -19.03125 C 16.234375 -15.394531 16.710938 -12.765625 17.671875 -11.140625 C 18.628906 -9.523438 20.421875 -8.71875 23.046875 -8.71875 C 23.859375 -8.71875 24.71875 -8.753906 25.625 -8.828125 C 26.539062 -8.910156 27.351562 -9 28.0625 -9.09375 L 28.0625 -39.890625 L 39.359375 -39.890625 Z M 39.359375 -1.359375 "/></g></g></g><g fill="#f76a13" fill-opacity="1"><g transform="translate(195.917035, 163.723102)"><g><path d="M 5.3125 -38.515625 C 7.226562 -39.078125 9.703125 -39.597656 12.734375 -40.078125 C 15.765625 -40.554688 18.953125 -40.796875 22.296875 -40.796875 C 25.679688 -40.796875 28.5 -40.351562 30.75 -39.46875 C 33 -38.582031 34.78125 -37.328125 36.09375 -35.703125 C 37.40625 -34.085938 38.335938 -32.164062 38.890625 -29.9375 C 39.453125 -27.71875 39.734375 -25.242188 39.734375 -22.515625 L 39.734375 0 L 28.4375 0 L 28.4375 -21.15625 C 28.4375 -24.789062 27.953125 -27.367188 26.984375 -28.890625 C 26.023438 -30.410156 24.234375 -31.171875 21.609375 -31.171875 C 20.796875 -31.171875 19.9375 -31.128906 19.03125 -31.046875 C 18.125 -30.972656 17.316406 -30.882812 16.609375 -30.78125 L 16.609375 0 L 5.3125 0 Z M 5.3125 -38.515625 "/></g></g></g><g fill="#f76a13" fill-opacity="1"><g transform="translate(238.21219, 163.723102)"><g><path d="M 3.40625 -19.9375 C 3.40625 -22.820312 3.875 -25.539062 4.8125 -28.09375 C 5.75 -30.644531 7.101562 -32.867188 8.875 -34.765625 C 10.644531 -36.660156 12.789062 -38.164062 15.3125 -39.28125 C 17.84375 -40.394531 20.726562 -40.953125 23.96875 -40.953125 C 26.082031 -40.953125 28.023438 -40.757812 29.796875 -40.375 C 31.566406 -40 33.285156 -39.457031 34.953125 -38.75 L 32.609375 -29.71875 C 31.546875 -30.125 30.378906 -30.476562 29.109375 -30.78125 C 27.847656 -31.082031 26.4375 -31.234375 24.875 -31.234375 C 21.53125 -31.234375 19.035156 -30.195312 17.390625 -28.125 C 15.753906 -26.050781 14.9375 -23.320312 14.9375 -19.9375 C 14.9375 -16.351562 15.707031 -13.570312 17.25 -11.59375 C 18.789062 -9.625 21.484375 -8.640625 25.328125 -8.640625 C 26.691406 -8.640625 28.15625 -8.765625 29.71875 -9.015625 C 31.289062 -9.273438 32.734375 -9.679688 34.046875 -10.234375 L 35.640625 -0.984375 C 34.328125 -0.429688 32.679688 0.046875 30.703125 0.453125 C 28.734375 0.859375 26.5625 1.0625 24.1875 1.0625 C 20.550781 1.0625 17.414062 0.519531 14.78125 -0.5625 C 12.15625 -1.65625 9.992188 -3.132812 8.296875 -5 C 6.609375 -6.875 5.367188 -9.085938 4.578125 -11.640625 C 3.796875 -14.191406 3.40625 -16.957031 3.40625 -19.9375 Z M 3.40625 -19.9375 "/></g></g></g><g fill="#f76a13" fill-opacity="1"><g transform="translate(273.76118, 163.723102)"><g><path d="M 39.359375 -1.359375 C 37.429688 -0.804688 34.953125 -0.289062 31.921875 0.1875 C 28.890625 0.664062 25.707031 0.90625 22.375 0.90625 C 18.976562 0.90625 16.15625 0.453125 13.90625 -0.453125 C 11.664062 -1.359375 9.882812 -2.632812 8.5625 -4.28125 C 7.25 -5.925781 6.3125 -7.882812 5.75 -10.15625 C 5.195312 -12.4375 4.921875 -14.941406 4.921875 -17.671875 L 4.921875 -39.890625 L 16.234375 -39.890625 L 16.234375 -19.03125 C 16.234375 -15.394531 16.710938 -12.765625 17.671875 -11.140625 C 18.628906 -9.523438 20.421875 -8.71875 23.046875 -8.71875 C 23.859375 -8.71875 24.71875 -8.753906 25.625 -8.828125 C 26.539062 -8.910156 27.351562 -9 28.0625 -9.09375 L 28.0625 -39.890625 L 39.359375 -39.890625 Z M 39.359375 -1.359375 "/></g></g></g><path stroke-linecap="butt" transform="matrix(4.362578, 0, 0, 4.362578, 112.58717, 159.318609)" fill="none" stroke-linejoin="miter" d="M 5.019327 5.581416 L 7.611509 5.16595 L 7.611509 7.860208 L 10.722127 7.860208 L 10.722127 10.011853 L 7.611509 10.011853 L 7.611509 13.228128 C 7.611509 13.773426 7.706421 14.209486 7.896246 14.534516 C 8.088757 14.85686 8.474674 15.018032 9.054893 15.018032 C 9.331571 15.018032 9.617204 14.99296 9.91179 14.941923 C 10.209063 14.888199 10.478578 14.814776 10.722127 14.721654 L 11.08745 16.74078 C 10.773165 16.868822 10.424854 16.977166 10.043414 17.067601 C 9.661079 17.161618 9.191889 17.208179 8.634055 17.208179 C 7.927585 17.208179 7.341994 17.113267 6.878177 16.923442 C 6.417046 16.730931 6.046351 16.464102 5.766091 16.122059 C 5.488517 15.779121 5.29511 15.364551 5.184976 14.878349 C 5.074842 14.392147 5.019327 13.853117 5.019327 13.262153 Z M 14.872304 17.000446 L 12.283704 17.000446 L 12.283704 7.860208 L 14.872304 7.860208 Z M 15.114062 5.216988 C 15.114062 5.69155 14.960053 6.064932 14.652036 6.337133 C 14.345809 6.608439 13.985858 6.74454 13.569498 6.74454 C 13.151346 6.74454 12.787814 6.608439 12.478901 6.337133 C 12.17357 6.064932 12.021352 5.69155 12.021352 5.216988 C 12.021352 4.741531 12.17357 4.368149 12.478901 4.096843 C 12.787814 3.821956 13.151346 3.68496 13.569498 3.68496 C 13.985858 3.68496 14.345809 3.821956 14.652036 4.096843 C 14.960053 4.368149 15.114062 4.741531 15.114062 5.216988 Z M 19.354674 11.161546 C 19.609863 10.881286 19.872215 10.591176 20.144416 10.291217 C 20.418409 9.988572 20.682551 9.690404 20.93774 9.395818 C 21.192034 9.102127 21.432896 8.821867 21.658537 8.555933 C 21.885073 8.287313 22.079375 8.055405 22.240547 7.860208 L 25.316244 7.860208 C 24.702895 8.564887 24.102978 9.239123 23.517386 9.883811 C 22.931795 10.526708 22.290689 11.189303 21.594964 11.874284 C 21.943274 12.184987 22.302329 12.559264 22.673025 12.994429 C 23.04372 13.426907 23.402775 13.875502 23.751086 14.339319 C 24.098501 14.803136 24.417263 15.266953 24.705582 15.731665 C 24.996586 16.195482 25.241926 16.618111 25.439809 17.000446 L 22.465292 17.000446 C 22.28084 16.700487 22.070421 16.367399 21.83314 16.002971 C 21.594964 15.634962 21.342461 15.268743 21.072946 14.904316 C 20.807012 14.538993 20.525857 14.189787 20.228584 13.855803 C 19.934893 13.519133 19.642993 13.235291 19.354674 13.003383 L 19.354674 17.000446 L 16.766969 17.000446 L 16.766969 3.931195 L 19.354674 3.514834 Z M 19.354674 11.161546 " stroke="#ffffff" stroke-width="4.56309" stroke-opacity="1" stroke-miterlimit="4"/><g fill="#f76a13" fill-opacity="1"><g transform="translate(129.560324, 233.482429)"><g><path d="M 4.921875 -49.8125 L 16.234375 -51.640625 L 16.234375 -39.890625 L 29.796875 -39.890625 L 29.796875 -30.484375 L 16.234375 -30.484375 L 16.234375 -16.453125 C 16.234375 -14.078125 16.648438 -12.179688 17.484375 -10.765625 C 18.316406 -9.347656 19.992188 -8.640625 22.515625 -8.640625 C 23.734375 -8.640625 24.984375 -8.753906 26.265625 -8.984375 C 27.554688 -9.210938 28.734375 -9.53125 29.796875 -9.9375 L 31.390625 -1.140625 C 30.023438 -0.578125 28.507812 -0.0976562 26.84375 0.296875 C 25.175781 0.703125 23.128906 0.90625 20.703125 0.90625 C 17.617188 0.90625 15.066406 0.488281 13.046875 -0.34375 C 11.023438 -1.175781 9.40625 -2.335938 8.1875 -3.828125 C 6.976562 -5.316406 6.128906 -7.125 5.640625 -9.25 C 5.160156 -11.375 4.921875 -13.722656 4.921875 -16.296875 Z M 4.921875 -49.8125 "/></g></g></g><g fill="#f76a13" fill-opacity="1"><g transform="translate(160.864494, 233.482429)"><g><path d="M 16.609375 0 L 5.3125 0 L 5.3125 -39.890625 L 16.609375 -39.890625 Z M 17.671875 -51.40625 C 17.671875 -49.332031 17 -47.703125 15.65625 -46.515625 C 14.320312 -45.328125 12.742188 -44.734375 10.921875 -44.734375 C 9.097656 -44.734375 7.515625 -45.328125 6.171875 -46.515625 C 4.835938 -47.703125 4.171875 -49.332031 4.171875 -51.40625 C 4.171875 -53.476562 4.835938 -55.109375 6.171875 -56.296875 C 7.515625 -57.484375 9.097656 -58.078125 10.921875 -58.078125 C 12.742188 -58.078125 14.320312 -57.484375 15.65625 -56.296875 C 17 -55.109375 17.671875 -53.476562 17.671875 -51.40625 Z M 17.671875 -51.40625 "/></g></g></g><g fill="#f76a13" fill-opacity="1"><g transform="translate(180.41974, 233.482429)"><g><path d="M 16.609375 -25.484375 C 17.722656 -26.691406 18.875 -27.953125 20.0625 -29.265625 C 21.25 -30.578125 22.394531 -31.878906 23.5 -33.171875 C 24.613281 -34.460938 25.660156 -35.6875 26.640625 -36.84375 C 27.628906 -38.007812 28.476562 -39.023438 29.1875 -39.890625 L 42.609375 -39.890625 C 39.929688 -36.804688 37.316406 -33.859375 34.765625 -31.046875 C 32.210938 -28.242188 29.421875 -25.351562 26.390625 -22.375 C 27.898438 -21.007812 29.460938 -19.378906 31.078125 -17.484375 C 32.703125 -15.585938 34.269531 -13.625 35.78125 -11.59375 C 37.300781 -9.570312 38.691406 -7.550781 39.953125 -5.53125 C 41.222656 -3.507812 42.285156 -1.664062 43.140625 0 L 30.171875 0 C 29.367188 -1.3125 28.445312 -2.765625 27.40625 -4.359375 C 26.375 -5.953125 25.273438 -7.546875 24.109375 -9.140625 C 22.953125 -10.734375 21.726562 -12.257812 20.4375 -13.71875 C 19.144531 -15.1875 17.867188 -16.425781 16.609375 -17.4375 L 16.609375 0 L 5.3125 0 L 5.3125 -57.015625 L 16.609375 -58.84375 Z M 16.609375 -25.484375 "/></g></g></g><g fill="#f76a13" fill-opacity="1"><g transform="translate(221.992437, 233.482429)"><g/></g></g><g clip-path="url(#b0c0b51cd4)"><g clip-path="url(#179445d41a)"><g clip-path="url(#e5b8f9fd41)"><path fill="#ffffff" d="M 277.320312 271.6875 C 252.863281 268.660156 235.429688 246.296875 238.460938 221.828125 C 241.492188 197.363281 263.855469 179.917969 288.3125 182.949219 C 296.328125 183.941406 303.898438 187.050781 310.210938 191.960938 C 311.539062 192.996094 311.78125 194.910156 310.75 196.226562 C 309.707031 197.566406 307.789062 197.765625 306.484375 196.765625 C 301.035156 192.53125 294.5 189.835938 287.566406 188.976562 C 266.4375 186.363281 247.109375 201.429688 244.492188 222.578125 C 241.875 243.703125 256.945312 263.019531 278.070312 265.636719 C 299.207031 268.253906 318.523438 253.195312 321.140625 232.070312 C 321.347656 230.398438 322.871094 229.222656 324.539062 229.429688 C 326.207031 229.636719 327.398438 231.148438 327.191406 232.820312 C 324.160156 257.285156 301.785156 274.71875 277.320312 271.6875 Z M 277.320312 271.6875 " fill-opacity="1" fill-rule="nonzero"/></g></g></g><g clip-path="url(#4869e2419d)"><g clip-path="url(#bc249d8acf)"><g clip-path="url(#67215657fa)"><path fill="#ffffff" d="M 276.164062 251.640625 C 276.027344 251.621094 275.890625 251.605469 275.753906 251.570312 C 273.609375 251.183594 271.773438 249.820312 270.765625 247.878906 L 258.648438 224.527344 C 256.855469 221.066406 258.210938 216.804688 261.664062 215.007812 C 265.15625 213.207031 269.378906 214.570312 271.183594 218.023438 L 279.109375 233.324219 L 323.628906 193.632812 C 326.542969 191.03125 330.996094 191.304688 333.589844 194.210938 C 336.179688 197.113281 335.925781 201.578125 333.011719 204.171875 L 281.726562 249.894531 C 280.210938 251.261719 278.175781 251.886719 276.164062 251.640625 Z M 276.164062 251.640625 " fill-opacity="1" fill-rule="nonzero"/></g></g></g></svg>