<svg width="375" height="382" viewBox="0 0 375 382" fill="none" xmlns="http://www.w3.org/2000/svg">
<circle cx="434" cy="183" r="199" fill="#FFDBB0"/>
<circle cx="166" cy="-62" r="350" fill="#FEA236" fill-opacity="0.85"/>
<path d="M235 -93C235 16.9047 145.905 106 36 106C-73.9047 106 -163 16.9047 -163 -93C-163 -202.905 -73.9047 -292 36 -292C145.905 -292 235 -202.905 235 -93Z" fill="#FDD09B"/>
<path d="M51.364 175.552C47.6533 175.552 44.74 174.448 42.624 172.24C40.508 170.032 39.45 166.873 39.45 162.764V142.8H43.82V162.074C43.82 165.141 44.4487 167.517 45.706 169.204C46.9633 170.891 48.8493 171.734 51.364 171.734C53.9707 171.734 55.918 170.921 57.206 169.296C58.494 167.64 59.138 165.233 59.138 162.074V142.8H63.37V162.58C63.37 165.279 62.864 167.609 61.852 169.572C60.8707 171.504 59.4753 172.991 57.666 174.034C55.8873 175.046 53.7867 175.552 51.364 175.552ZM55.688 140.04C54.9213 140.04 54.262 139.764 53.71 139.212C53.1887 138.66 52.928 138.016 52.928 137.28C52.928 136.452 53.1733 135.793 53.664 135.302C54.1547 134.781 54.8293 134.52 55.688 134.52C56.4547 134.52 57.0987 134.796 57.62 135.348C58.172 135.9 58.448 136.544 58.448 137.28C58.448 138.108 58.2027 138.783 57.712 139.304C57.2213 139.795 56.5467 140.04 55.688 140.04ZM47.316 140.04C46.5493 140.04 45.89 139.764 45.338 139.212C44.8167 138.66 44.556 138.016 44.556 137.28C44.556 136.452 44.8013 135.793 45.292 135.302C45.7827 134.781 46.4573 134.52 47.316 134.52C48.0827 134.52 48.7267 134.796 49.248 135.348C49.8 135.9 50.076 136.544 50.076 137.28C50.076 138.108 49.8307 138.783 49.34 139.304C48.8493 139.795 48.1747 140.04 47.316 140.04ZM71.0944 185.672C70.1744 185.672 69.3617 185.58 68.6564 185.396C67.9817 185.212 67.4451 184.997 67.0464 184.752L67.9664 181.302C68.3344 181.517 68.7944 181.701 69.3464 181.854C69.8984 182.007 70.5117 182.084 71.1864 182.084C72.4744 182.084 73.6244 181.67 74.6364 180.842C75.6484 180.014 76.6144 178.389 77.5344 175.966L78.5924 173.206H76.3844L67.0464 152.184L70.7264 150.528L79.6504 170.446L86.5964 150.712L90.4144 152.184L81.6284 176.196C80.7391 178.649 79.7731 180.566 78.7304 181.946C77.6877 183.326 76.5377 184.292 75.2804 184.844C74.0231 185.396 72.6277 185.672 71.0944 185.672ZM103.244 175.552C99.8094 175.552 97.0801 174.463 95.0561 172.286C93.0628 170.078 92.0661 166.996 92.0661 163.04C92.0661 160.648 92.5108 158.517 93.4001 156.646C94.3201 154.745 95.5928 153.257 97.2181 152.184C98.8434 151.08 100.729 150.528 102.876 150.528C105.176 150.528 107.077 151.034 108.58 152.046C110.113 153.027 111.263 154.361 112.03 156.048C112.797 157.735 113.18 159.59 113.18 161.614C113.18 162.687 113.134 163.73 113.042 164.742H96.2981C96.5741 166.981 97.3561 168.729 98.6441 169.986C99.9321 171.243 101.634 171.872 103.75 171.872C105.13 171.872 106.372 171.734 107.476 171.458C108.58 171.151 109.638 170.768 110.65 170.308L111.616 173.85C110.512 174.341 109.27 174.739 107.89 175.046C106.51 175.383 104.961 175.552 103.244 175.552ZM96.2521 161.384H109.362C109.362 159.053 108.779 157.259 107.614 156.002C106.449 154.745 104.839 154.116 102.784 154.116C101.005 154.116 99.5334 154.745 98.3681 156.002C97.2028 157.229 96.4974 159.023 96.2521 161.384ZM125.966 175.552C124.555 175.552 123.282 175.291 122.148 174.77C121.013 174.218 120.108 173.344 119.434 172.148C118.79 170.952 118.468 169.403 118.468 167.502V140.96H122.608V167.088C122.608 168.744 122.945 169.971 123.62 170.768C124.325 171.565 125.291 171.964 126.518 171.964C127.1 171.964 127.668 171.903 128.22 171.78C128.802 171.627 129.293 171.458 129.692 171.274L130.704 174.632C130.152 174.877 129.462 175.092 128.634 175.276C127.836 175.46 126.947 175.552 125.966 175.552ZM134.6 175V151.08H138.74V175H134.6ZM136.67 146.986C135.873 146.986 135.183 146.695 134.6 146.112C134.048 145.529 133.772 144.855 133.772 144.088C133.772 143.199 134.033 142.493 134.554 141.972C135.075 141.451 135.781 141.19 136.67 141.19C137.467 141.19 138.142 141.481 138.694 142.064C139.277 142.616 139.568 143.291 139.568 144.088C139.568 144.947 139.307 145.652 138.786 146.204C138.265 146.725 137.559 146.986 136.67 146.986ZM162.614 175.46L150.24 162.718V175H146.1V140.96H150.24V160.418L161.05 150.62L163.442 153.242L154.196 161.43L165.466 172.7L162.614 175.46ZM60.15 229.552L44.51 214.188V229H40.14V196.8H44.51V211.474L58.218 196.662L61.162 199.376L48.604 212.44L63.186 226.424L60.15 229.552ZM76.461 229.552C74.4676 229.552 72.6583 229.046 71.033 228.034C69.4076 227.022 68.1043 225.596 67.123 223.756C66.1723 221.885 65.697 219.693 65.697 217.178C65.697 214.786 66.1723 212.639 67.123 210.738C68.1043 208.837 69.4383 207.334 71.125 206.23C72.8423 205.095 74.805 204.528 77.013 204.528C78.393 204.528 79.635 204.773 80.739 205.264C81.8736 205.724 82.855 206.307 83.683 207.012V205.08H87.455V223.204C87.455 224.369 87.731 225.136 88.283 225.504C88.8656 225.841 89.4943 226.01 90.169 226.01L89.295 229.23C86.351 229.23 84.5723 228.034 83.959 225.642C83.2536 226.623 82.2876 227.528 81.061 228.356C79.865 229.153 78.3316 229.552 76.461 229.552ZM77.381 225.872C78.5463 225.872 79.6503 225.596 80.693 225.044C81.7356 224.461 82.6096 223.741 83.315 222.882V210.048C82.487 209.465 81.567 209.005 80.555 208.668C79.5736 208.3 78.531 208.116 77.427 208.116C75.955 208.116 74.6516 208.499 73.517 209.266C72.413 210.002 71.539 211.045 70.895 212.394C70.251 213.713 69.929 215.261 69.929 217.04C69.929 218.757 70.251 220.291 70.895 221.64C71.539 222.959 72.4283 224.001 73.563 224.768C74.6976 225.504 75.9703 225.872 77.381 225.872ZM95.6976 229V205.08H99.6996V210.278C100.098 209.266 100.635 208.331 101.31 207.472C101.984 206.583 102.828 205.877 103.84 205.356C104.852 204.804 106.032 204.528 107.382 204.528C107.842 204.528 108.302 204.559 108.762 204.62C109.222 204.651 109.605 204.712 109.912 204.804L108.67 209.082C108.087 208.837 107.397 208.714 106.6 208.714C105.465 208.714 104.376 209.036 103.334 209.68C102.322 210.324 101.478 211.321 100.804 212.67C100.16 214.019 99.8376 215.737 99.8376 217.822V229H95.6976ZM123.341 229.552C121.041 229.552 119.216 228.801 117.867 227.298C116.548 225.765 115.889 223.587 115.889 220.766V209.542H111.749V205.954H115.981L116.855 198.41H120.029V205.954H126.653V209.542H120.029V221.088C120.029 222.867 120.397 224.109 121.133 224.814C121.9 225.519 122.804 225.872 123.847 225.872C124.614 225.872 125.334 225.749 126.009 225.504C126.714 225.259 127.358 224.967 127.941 224.63L129.091 227.942C128.478 228.31 127.65 228.663 126.607 229C125.564 229.368 124.476 229.552 123.341 229.552ZM133.252 229V205.08H137.392V229H133.252Z" fill="white"/>
<g clip-path="url(#clip0_369_51)">
<path d="M20.9999 47.6048C24.7892 47.6048 25.3225 45.5516 25.3225 43.7093C25.3225 42.2368 25.1093 40.7644 24.8955 39.2878C24.6817 37.8112 24.468 36.3929 24.468 34.9187C24.468 30.0761 27.6704 28.0229 32.2061 28.0229H44.4717L44.2149 30.9184H32.3674C29.2187 30.9184 28.151 32.6029 28.151 35.4453C28.151 36.6556 28.3111 37.919 28.5249 39.1824C28.738 40.4987 28.8981 41.7615 28.8981 43.1833C28.9518 46.5517 27.4572 48.2362 25.0561 48.8681V48.9736C27.4572 49.5525 28.9518 51.3419 28.8981 54.7108C28.8981 56.132 28.738 57.4478 28.5249 58.7112C28.3111 60.0275 28.151 61.2379 28.151 62.5013C28.151 65.4462 29.3787 67.0812 32.3674 67.0812H33.3275V69.9748H32.2067C27.7778 69.9748 24.468 68.0813 24.468 62.7645C24.468 61.3433 24.6817 59.8697 24.8949 58.4479C25.1081 57.0261 25.3219 55.6055 25.3219 54.1843C25.3219 52.5528 24.7886 50.2893 20.9993 50.2893L20.9999 47.6048Z" fill="black"/>
<path d="M32.4658 69.9748L47.056 18.9985H50.6119L35.9698 69.9748H32.4658Z" fill="black"/>
<path d="M69.0005 50.3948C65.2112 50.3948 64.6779 52.4474 64.6779 54.2897C64.6779 55.7621 64.8911 57.2346 65.1043 58.7112C65.3174 60.1877 65.5312 61.6066 65.5312 63.0802C65.5312 67.9234 62.3294 69.976 57.7931 69.976H45.5281L45.7848 67.0812H57.633C60.7817 67.0812 61.8493 65.3967 61.8493 62.5543C61.8493 61.3433 61.6893 60.0805 61.4755 58.8166C61.2624 57.5008 61.1023 56.2375 61.1023 54.8162C61.0486 51.4473 62.5432 49.7628 64.9442 49.1314V49.026C62.5432 48.447 61.0486 46.6571 61.1023 43.2881C61.1023 41.8669 61.2624 40.5511 61.4755 39.2878C61.6893 37.972 61.8493 36.7611 61.8493 35.4977C61.8493 32.5528 60.6216 30.9184 57.633 30.9184H56.6728V28.0229H57.7931C62.2225 28.0229 65.5312 29.9183 65.5312 35.235C65.5312 36.6562 65.318 38.1298 65.1043 39.5511C64.8905 40.9723 64.6779 42.3935 64.6779 43.8147C64.6779 45.4468 65.2112 47.7102 69.0005 47.7102V50.3948Z" fill="black"/>
<path d="M57.5345 28.0229L42.9443 78.9998H39.3884L54.0306 28.0229H57.5345Z" fill="black"/>
<path d="M54.3656 19L48.3299 40.0855H46.8604L52.917 19H54.3656Z" fill="black"/>
<path d="M43.1414 57.9126L37.1062 78.9981H35.6343L41.6915 57.9126H43.1414Z" fill="black"/>
</g>
<path d="M75.2559 32.6211V41H74.1719V32.6211H75.2559ZM75.3145 30.3945V31.5078H74.1133V30.3945H75.3145ZM76.5801 32.6211H77.7812L80.1953 36.998L82.6445 32.6211H83.9043L80.7051 38.0703V41H79.6211V38.0703L76.5801 32.6211ZM90.7012 32.6211V33.5H88.0645V41H86.9805V33.5H84.3438V32.6211H90.7012ZM97.4746 32.6211V33.5H93.0801V36.3125H97.2695V37.1914H93.0801V40.1211H97.5625V41H91.9961V32.6211H97.4746ZM73.1465 45.6211H74.3477L76.7617 49.998L79.2109 45.6211H80.4707L77.2715 51.0703V54H76.1875V51.0703L73.1465 45.6211ZM81.2031 52.1426C81.2031 50.8809 82.0352 50.25 83.6992 50.25C84.2344 50.25 84.7695 50.2891 85.3047 50.3672V49.7871C85.3047 49.0801 84.752 48.7266 83.6465 48.7266C83.0137 48.7266 82.3652 48.8242 81.7012 49.0195V48.1406C82.3652 47.9453 83.0137 47.8477 83.6465 47.8477C85.4746 47.8477 86.3887 48.4844 86.3887 49.7578V54H85.7793L85.4043 53.3906C84.791 53.7969 84.123 54 83.4004 54C81.9355 54 81.2031 53.3809 81.2031 52.1426ZM83.6992 51.1289C82.7578 51.1289 82.2871 51.4609 82.2871 52.125C82.2871 52.7891 82.6582 53.1211 83.4004 53.1211C84.1504 53.1211 84.7852 52.9219 85.3047 52.5234V51.2461C84.7695 51.168 84.2344 51.1289 83.6992 51.1289ZM87.9766 47.8477H92.7812V48.7266L89.1074 53.1797H92.6641V54H87.8594V53.1797L91.5801 48.7266H87.9766V47.8477ZM95.4473 47.8477V54H94.3633V47.8477H95.4473ZM98.4707 45.6211V54H97.3867V45.6211H98.4707ZM101.494 47.8477V54H100.41V47.8477H101.494ZM103.375 54V47.8477H104.107L104.289 48.6211C104.879 48.1055 105.521 47.8477 106.217 47.8477C107.107 47.8477 107.715 48.1289 108.039 48.6914C108.707 48.1289 109.385 47.8477 110.072 47.8477C111.486 47.8477 112.193 48.627 112.193 50.1855V54H111.109V50.127C111.109 49.209 110.723 48.75 109.949 48.75C109.371 48.75 108.83 49.0156 108.326 49.5469V54H107.242V50.1445C107.242 49.2148 106.859 48.75 106.094 48.75C105.484 48.75 104.939 49.0156 104.459 49.5469V54H103.375ZM79.6504 58.6211V59.5H77.0137V67H75.9297V59.5H73.293V58.6211H79.6504ZM81.6191 63.9004C81.6191 65.3809 82.2344 66.1211 83.4648 66.1211C84.6953 66.1211 85.3105 65.3809 85.3105 63.9004C85.3105 62.4512 84.6953 61.7266 83.4648 61.7266C82.2344 61.7266 81.6191 62.4512 81.6191 63.9004ZM80.5352 63.9238C80.5352 61.873 81.5117 60.8477 83.4648 60.8477C85.418 60.8477 86.3945 61.873 86.3945 63.9238C86.3945 65.9707 85.418 66.9941 83.4648 66.9941C81.5195 66.9941 80.543 65.9707 80.5352 63.9238ZM88.9434 65.7461C89.3691 65.957 89.8438 66.0625 90.3672 66.0625C91.6445 66.0625 92.2832 65.2949 92.2832 63.7598C92.2832 62.4199 91.6484 61.75 90.3789 61.75C89.832 61.75 89.3535 61.7969 88.9434 61.8906V65.7461ZM87.8594 61.0996C88.6758 60.9316 89.5195 60.8477 90.3906 60.8477C92.3633 60.8477 93.3496 61.8223 93.3496 63.7715C93.3496 65.9238 92.3574 67 90.373 67C89.8809 67 89.4043 66.9023 88.9434 66.707V69.2266H87.8594V61.0996ZM95.9629 58.6211V67H94.8789V58.6211H95.9629ZM103.088 60.8477V67H102.344L102.156 66.2148C101.41 66.7383 100.66 67 99.9062 67C98.4922 67 97.7852 66.2363 97.7852 64.709V60.8477H98.8691V64.7266C98.8691 65.6406 99.3223 66.0977 100.229 66.0977C100.85 66.0977 101.441 65.8379 102.004 65.3184V60.8477H103.088ZM105.994 58.6211V67H104.91V58.6211H105.994ZM113.119 60.8477V67H112.375L112.188 66.2148C111.441 66.7383 110.691 67 109.938 67C108.523 67 107.816 66.2363 107.816 64.709V60.8477H108.9V64.7266C108.9 65.6406 109.354 66.0977 110.26 66.0977C110.881 66.0977 111.473 65.8379 112.035 65.3184V60.8477H113.119ZM118.996 61.8906C118.625 61.7969 118.166 61.75 117.619 61.75C116.311 61.75 115.656 62.459 115.656 63.877C115.656 65.334 116.275 66.0625 117.514 66.0625C118.076 66.0625 118.57 65.957 118.996 65.7461V61.8906ZM120.08 67C120.08 68.4844 119.137 69.2266 117.25 69.2266C116.492 69.2266 115.82 69.1289 115.234 68.9336V68.0547C115.832 68.25 116.508 68.3477 117.262 68.3477C118.418 68.3477 118.996 67.8984 118.996 67V66.707C118.535 66.9023 118.039 67 117.508 67C115.562 67 114.59 65.9629 114.59 63.8887C114.59 61.8613 115.615 60.8477 117.666 60.8477C118.498 60.8477 119.303 60.9316 120.08 61.0996V67ZM116.02 58.6211H116.811C116.811 59.207 117.064 59.5 117.572 59.5C118.08 59.5 118.334 59.207 118.334 58.6211H119.125C119.125 59.6367 118.607 60.1445 117.572 60.1445C116.537 60.1445 116.02 59.6367 116.02 58.6211ZM127.146 60.8477V67H126.402L126.215 66.2148C125.469 66.7383 124.719 67 123.965 67C122.551 67 121.844 66.2363 121.844 64.709V60.8477H122.928V64.7266C122.928 65.6406 123.381 66.0977 124.287 66.0977C124.908 66.0977 125.5 65.8379 126.062 65.3184V60.8477H127.146Z" fill="black"/>
<defs>
<clipPath id="clip0_369_51">
<rect width="48" height="60" fill="white" transform="translate(21 19)"/>
</clipPath>
</defs>
</svg>
